<?xml version="1.0" encoding="UTF-8"?>
<svg id="Layer_1" data-name="Layer 1" xmlns="http://www.w3.org/2000/svg" viewBox="0 0 92 50.43">
  <defs>
    <style>
      .cls-1 {
        fill: #231f20;
      }
    </style>
  </defs>
  <g>
    <path class="cls-1" d="m34.62,35.45v14.3h-.58c-.23,0-.58.03-1.07.08-.42.05-.9.08-1.47.08v-.24c.58-.06,1.06-.35,1.44-.85.38-.51.57-1.48.57-2.93v-6.97c0-1.97-.67-3.1-2.01-3.38v-.24c.58.06,1.62.12,3.12.16Zm1.38,14.3h-.39v-14.3c.54,0,1.12-.02,1.74-.07.71-.06,1.28-.09,1.72-.09,1.24,0,2.16.38,2.77,1.14.61.75.91,1.68.91,2.78,0,1.87-.79,3.07-2.37,3.6.79.11,1.45.34,1.98.71.57.39,1.43,1.17,2.59,2.33,1.76,1.79,3.2,2.69,4.31,2.69.23,0,.46-.08.69-.23l.05.24c-.36.47-.86.71-1.51.71-.69,0-1.41-.26-2.16-.77-.71-.49-1.76-1.45-3.16-2.88-1.68-1.74-3.32-2.6-4.91-2.6.99.31,2.32,1.34,4,3.11,1.19,1.23,2.13,2.13,2.85,2.69.72.56,1.42.84,2.08.84v.12c-.31.11-.61.16-.91.16-.88,0-1.64-.22-2.28-.66-.34-.24-.78-.62-1.31-1.12-.53-.5-1.16-1.15-1.91-1.95-1.09-1.16-1.89-1.94-2.42-2.36-.56-.42-1.11-.72-1.64-.9v3.22c0,2.16.65,3.34,1.95,3.53v.24c-1.09-.11-1.98-.16-2.69-.16Zm.73-10.57v2.94c.53.14,1.11.2,1.74.2,2.04,0,3.05-1.06,3.05-3.18,0-1.98-1.01-2.97-3.03-2.97-.65,0-1.16.13-1.52.39-.16.36-.24,1.23-.24,2.61Zm6.15,2.93c.59-.93.88-1.96.88-3.08,0-1.02-.34-2.05-1.02-3.08,1.56.66,2.33,1.7,2.33,3.12s-.73,2.45-2.2,3.04Z"/>
    <path class="cls-1" d="m51.16,45.04h.31c.06,1.16.53,2.11,1.4,2.86.85.74,1.83,1.11,2.93,1.11.85,0,1.54-.24,2.08-.72.53-.48.8-1.05.8-1.72,0-.71-.26-1.25-.77-1.64-.5-.38-1.48-.81-2.94-1.29-1.18-.39-2.01-.71-2.51-.96-.58-.3-1.03-.7-1.36-1.21-.35-.52-.53-1.09-.53-1.74,0-.71.24-1.42.72-2.1-.11.35-.16.66-.16.92,0,.71.17,1.33.5,1.86.34.55.77.97,1.28,1.25.51.29,1.35.62,2.54.99,1.55.47,2.66.99,3.35,1.56.66.55.99,1.29.99,2.23s-.34,1.74-1.03,2.48c-.7.75-1.74,1.13-3.12,1.13-.56,0-1.34-.1-2.33-.31-.87-.18-1.52-.28-1.95-.29l-.09-.11c0-.15.01-.35.01-.6,0-.29-.03-.74-.08-1.34-.05-.61-.07-1.06-.07-1.36,0-.39.02-.72.05-1Zm9.58-5.67h-.29c0-1.05-.42-1.83-1.25-2.33-.81-.5-1.78-.75-2.93-.75-.91,0-1.66.19-2.25.58-.6.39-.9.85-.9,1.4,0,.58.24,1.04.71,1.37.49.36,1.45.79,2.89,1.29,1.34.46,2.27.84,2.81,1.13.57.32,1.04.77,1.42,1.36.38.61.57,1.28.57,2.02,0,1.13-.42,2.02-1.25,2.66.31-.42.46-1.02.46-1.79,0-.72-.17-1.37-.5-1.93-.35-.57-.79-1.02-1.3-1.36-.52-.34-1.38-.71-2.56-1.1-1.78-.59-2.94-1.09-3.49-1.51-.54-.42-.81-1.09-.81-1.98,0-1.03.42-1.84,1.25-2.43.83-.57,2.01-.86,3.54-.86,1.04,0,2.31.18,3.81.54v.09l.03.52c0,.27,0,.6.03.98.03.46.04.87.04,1.22,0,.24,0,.52-.03.87Z"/>
  </g>
  <path class="cls-1" d="m70.94,50.18c1.26.06,2.43,0,3.57-.55.91-.43,1.72-1.02,2.51-1.63.89-.7,1.82-1,2.9-.54.65.27,1.31.51,1.98.74,1.75.59,3.49.6,5.17-.31,1.54-.83,2.81-2.05,4.31-2.95.25-.15.28-.42.11-.63-.19-.23-.46-.2-.69-.03-1.02.76-2.13.68-3.24.36-1.31-.37-2.37-1.21-3.51-1.88-1.68-.99-3.45-1.53-5.43-1.17-1.18.21-2.28.69-3.39,1.14-2.69,1.09-5.06.27-7.38-1.09.35-.26.69-.52,1.03-.77,1.75-1.27,3.51-2.54,5.26-3.82,1.58-1.15,3.15-2.32,4.73-3.47,2-1.46,4-2.9,6-4.36.24-.17.3-.4.2-.68-.15-.45-.5-.39-.85-.32-4.93,1-9.86,1.99-14.79,2.99-.85.17-1.7.34-2.58.51.04-.19.16-.24.24-.31,1.2-1.12,2.02-2.45,2.37-4.05.17-.8.31-1.6.45-2.4.16-.93.67-1.56,1.53-1.94.59-.26,1.18-.54,1.77-.81,1.94-.88,3.31-2.27,3.85-4.37.4-1.54.47-3.13.89-4.67.07-.27-.06-.48-.33-.55-.31-.07-.49.11-.54.41-.26,1.42-1.26,2.18-2.46,2.76-1.09.53-2.28.68-3.44.98-1.95.5-3.64,1.41-4.81,3.11-.62.9-1.05,1.91-1.47,2.91-1.12,2.7-3.35,3.93-6.03,4.61.01-.11.02-.22.03-.32.72-4.7,1.43-9.4,2.15-14.1.27-1.76.53-3.52.81-5.28.06-.37-.03-.6-.41-.72-.47-.15-.56-.12-.96.46-.99,1.43-1.98,2.87-2.97,4.3-1.51,2.18-3.02,4.36-4.53,6.53-.65.94-1.31,1.88-1.97,2.82-.04-.04-.06-.05-.06-.06,0-.1,0-.21,0-.31.06-1.19-.15-2.33-.63-3.42-.47-1.05-1.18-1.94-1.84-2.86-.57-.79-.72-1.62-.34-2.55.23-.56.45-1.12.66-1.69.67-1.79.86-3.58-.02-5.34-.31-.63-.67-1.24-1.11-1.79-.64-.81-1.23-1.66-1.77-2.54-.15-.24-.35-.45-.67-.26-.31.19-.3.45-.11.73.14.21.27.43.36.67.38,1.02.17,2.02-.21,3-.42,1.1-1.13,2.03-1.74,3.02-1.4,2.28-1.81,4.64-.82,7.16.41,1.06.82,2.12,1.04,3.25.41,2.18-.62,3.98-1.56,5.88-.7-.95-1.36-1.86-2.02-2.76-1.26-1.75-2.52-3.5-3.78-5.24-1.34-1.84-2.68-3.68-4.02-5.51-.81-1.11-1.62-2.23-2.43-3.34-.18-.25-.39-.32-.7-.18-.32.14-.37.36-.32.66.02.09.03.18.05.27.94,4.94,1.87,9.88,2.81,14.82.15.8.3,1.61.45,2.41-.17-.06-.26-.15-.34-.25-1.09-1.25-2.47-2.01-4.1-2.34-.84-.17-1.69-.3-2.53-.45-.74-.13-1.25-.57-1.57-1.22-.3-.6-.56-1.22-.83-1.84-.87-2-2.26-3.43-4.45-3.95-1.52-.36-3.1-.42-4.62-.81-.27-.07-.49.06-.55.35-.06.34.16.5.45.55,1.41.23,2.14,1.24,2.69,2.41.52,1.11.66,2.33.95,3.51.45,1.82,1.3,3.38,2.81,4.52.89.67,1.92,1.11,2.95,1.51,2.77,1.08,4.05,3.29,4.68,6.02-.04,0-.08.01-.13,0-2.56-.36-5.13-.71-7.69-1.07-3.92-.55-7.84-1.09-11.76-1.64-.37-.05-.66-.05-.82.4-.15.42-.03.63.3.86,3.67,2.5,7.33,5.01,11,7.52.91.62,1.82,1.24,2.84,1.94-.95-.06-1.75,0-2.55.18-1.44.33-2.65,1.1-3.78,2.01-1.06.85-2.14,1.22-3.42.6-.46-.22-.95-.38-1.43-.55-2.06-.75-4.06-.69-5.98.53-1.28.81-2.41,1.85-3.73,2.6-.23.13-.32.38-.17.63.17.26.41.28.66.1,1.2-.84,2.45-.69,3.72-.24,1.04.37,1.92,1.03,2.86,1.59,1.56.95,3.2,1.57,5.08,1.4,1.16-.11,2.23-.54,3.3-.96,1.42-.55,2.87-.99,4.41-.69,1.24.24,2.33.86,3.46,1.36.22.1.68.28.96.38s.55.16.55.16c-1.39-7,.86-14.63,6.7-19.85,8.65-7.73,21.89-7.09,29.54,1.55,4.61,5.21,6.07,12.02,4.64,18.29h.91m-44.89-2.25c-1.95-.87-3.91-.77-5.89-.05-1.13.41-2.23.95-3.44,1.13-1.46.22-2.81-.13-4.08-.8-1.29-.68-2.44-1.6-3.8-2.17.71-.08,1.36.1,2.01.31,1.1.36,2.16.83,3.3,1.05,1.96.38,3.8,0,5.57-.89.8-.4,1.6-.8,2.46-1.03,1.46-.39,2.8-.02,4.12.56.44.19.87.41,1.3.6.17.07.27.17.28.36.03.61.08,1.22.12,1.88-.67-.31-1.29-.66-1.94-.95Zm1.95-4.3c-.1.59-.12,1.2-.14,1.8-.01.31-.03.41-.36.22-.78-.45-1.61-.79-2.49-1.03-1.62-.44-3.16-.13-4.66.58-1.08.51-2.13,1.09-3.32,1.32-1.63.31-3.17,0-4.68-.59-.6-.23-1.22-.43-1.83-.61-.45-.13-.91-.2-1.38-.23-.47-.03-.92.12-1.47.15,1.87-1.53,3.83-1.88,5.97-1.09.73.27,1.46.55,2.2.8,1.07.36,2.04.12,2.95-.52.86-.6,1.66-1.28,2.61-1.73,2.08-.99,4.12-.99,6.16.08.4.21.51.41.43.85Zm1.14-4.91c-.41,1.06-.68,2.16-.93,3.34-4.34-2.97-8.64-5.92-12.95-8.86.01-.02.02-.04.04-.06,1.06.41,2.12.81,3.18,1.22,3.45,1.33,6.94,2.58,10.42,3.83.32.11.37.22.24.54Zm1.01-2.39c-.14.29-.29.57-.41.86-.08.2-.16.26-.36.17-4.46-1.86-8.94-3.68-13.47-5.41-.02,0-.04-.04-.11-.13,5.25.73,10.43,1.45,15.66,2.18-.46.79-.93,1.53-1.31,2.32Zm3.41-4.98c-.4.45-.79.92-1.22,1.43-.22-.66-.41-1.28-.63-1.89-.43-1.18-1.03-2.26-2-3.09-.93-.79-2.01-1.33-3.14-1.8-1.34-.56-2.59-1.23-3.47-2.45-.59-.83-.95-1.76-1.2-2.74-.31-1.2-.48-2.44-.96-3.6-.01-.03,0-.08,0-.18.66.66,1.04,1.43,1.41,2.21.45.96.87,1.93,1.49,2.81,1.03,1.45,2.4,2.39,4.06,2.97.8.28,1.62.54,2.39.91,1.29.64,2.1,1.7,2.63,3,.26.64.47,1.29.72,1.94.07.19.07.33-.07.49Zm2.37-2.25c-.53.39-1,.88-1.54,1.36-.16-.5-.29-.93-.43-1.37-.81-2.5-2.58-3.98-5.07-4.7-1.18-.34-2.3-.84-3.24-1.68-.92-.82-1.54-1.82-2.05-2.91-.39-.82-.73-1.66-1.23-2.44-.43-.67-1-1.18-1.65-1.63.98.08,1.91.33,2.76.83,1.07.63,1.7,1.62,2.21,2.7.27.57.5,1.15.76,1.72.51,1.11,1.34,1.8,2.57,2,1.01.17,2.03.25,3.01.58,2.14.73,3.55,2.16,4.27,4.33.19.57.1.86-.37,1.21Zm1.47-1.13c-.97-5.12-1.93-10.2-2.89-15.27,2.33,4.34,4.25,8.85,6.16,13.4-1.08.51-2.18,1.13-3.27,1.86Zm4.21-2.27c-2-4.52-3.98-9.04-5.56-13.73,3.04,4.19,6.08,8.37,9.15,12.6-1.25.31-2.47.67-3.59,1.13Zm7.23-1.75c-.39.38-1.06.15-1.6.28-.16.04-.33.04-.57.06.45-.85.89-1.64,1.23-2.48.74-1.82.66-3.62.04-5.43-.33-.96-.75-1.89-1-2.88-.47-1.88.01-3.6.98-5.23.67-1.12,1.46-2.18,1.98-3.4.06.97-.26,1.86-.6,2.73-.49,1.26-.93,2.52-1.01,3.88-.08,1.56.34,3,1.02,4.37.4.82.8,1.64,1,2.54.32,1.45-.12,2.77-.71,4.07-.23.51-.39,1.11-.76,1.48Zm2.85.2c-.62-.09-1.26-.07-1.92-.1.38-.73.75-1.42,1.04-2.15.74-1.84.63-3.62-.19-5.38-.48-1.04-1.04-2.06-1.28-3.2-.35-1.65-.04-3.23.56-4.78.24-.61.46-1.22.65-1.84.15-.47.23-.97.28-1.47.04-.5-.1-.98-.14-1.52,1.53,1.84,1.86,3.83,1,6.04-.27.69-.53,1.38-.79,2.08-.42,1.16-.13,2.18.55,3.14.64.89,1.33,1.73,1.75,2.76.8,1.94.71,3.83-.24,5.75-.32.65-.66.75-1.28.66Zm5.56,1.1c-.22.13-.69-.16-1.05-.27-.75-.22-1.51-.42-2.28-.55-.34-.05-.39-.13-.18-.43,1.9-2.71,3.78-5.44,5.67-8.16.96-1.38,1.91-2.76,2.87-4.14.1-.14.16-.33.42-.44-.51,1.29-1,2.51-1.47,3.73-1.18,3.08-2.35,6.15-3.52,9.23-.14.36-.2.88-.46,1.03Zm1.12.52c-.25-.1-.15-.25-.09-.4,1-2.36,2.01-4.72,3-7.09.84-2.02,1.64-4.06,2.46-6.09.07-.18.15-.35.23-.52.02,0,.04.01.06.02-.8,5.24-1.6,10.48-2.41,15.78-1.08-.65-2.13-1.24-3.25-1.7Zm5.7,3.58c-.41-.38-.86-.73-1.32-1.11.83-.28,1.66-.51,2.45-.84,2.01-.82,3.3-2.34,4.18-4.26.33-.72.64-1.44,1.01-2.13.9-1.69,2.34-2.7,4.14-3.24,1.14-.34,2.33-.51,3.46-.91.24-.08.47-.18.81-.31-.63.72-1.35,1.08-2.08,1.43-1.04.49-2.1.95-3.04,1.62-1.47,1.05-2.42,2.48-3.02,4.16-.22.61-.44,1.22-.68,1.82-.58,1.43-1.62,2.44-3.03,3.05-.72.31-1.47.57-2.2.85-.27.11-.47.06-.69-.14Zm2.35,2.36c-.34-.4-.69-.79-1.06-1.16-.24-.24-.2-.35.12-.43.94-.24,1.84-.61,2.67-1.1,1.47-.86,2.36-2.18,2.92-3.75.31-.87.59-1.75,1.04-2.56.92-1.66,2.37-2.72,4.06-3.48,1.01-.45,2.02-.89,2.87-1.63.4-.35.69-.78,1.07-1.28-.26,2.38-1.37,4.03-3.47,5-.69.32-1.37.63-2.06.95-1.11.52-1.69,1.41-1.9,2.59-.18.99-.27,2-.62,2.96-.76,2.11-2.18,3.56-4.33,4.25-.8.26-.79.25-1.32-.36Zm3.09,4.73c-.24-.19-.35-.54-.5-.83-.42-.81-.9-1.59-1.44-2.4,5.2-1.05,10.33-2.08,15.46-3.12,0,.03.02.05.03.08-.56.27-1.13.53-1.69.81-1.67.82-3.32,1.67-5.01,2.45-2.02.93-4.07,1.78-6.11,2.67-.26.11-.64.42-.74.34Zm1.32,4.07c-.19-.94-.49-1.85-.85-2.74-.13-.32-.16-.44.24-.6,1.71-.71,3.42-1.46,5.1-2.25,1.89-.89,3.86-1.56,5.79-2.35.87-.35,1.74-.69,2.6-1.04.01.02.02.03.04.05-3.26,2.37-6.52,4.75-9.77,7.12-.89.65-1.78,1.31-2.67,1.98-.26.2-.4.24-.48-.17Zm3.22,3.25c1.73.59,3.44.38,5.14-.23.95-.34,1.88-.77,2.86-1.01,1.83-.46,3.49-.02,5.06.89,1.14.66,2.2,1.44,3.42,1.97-1.01.06-1.92-.26-2.84-.61-1.51-.57-3.04-1.02-4.7-.87-1.16.1-2.24.48-3.28.98-.84.41-1.68.84-2.59,1.07-1.31.33-2.54.07-3.74-.44-.58-.25-1.15-.52-1.72-.78-.1-.05-.25-.07-.26-.22-.06-.67-.11-1.34-.17-2.05.95.5,1.84.98,2.81,1.31Zm11.44,3.43c-.52-.2-1.04-.38-1.55-.6-1.4-.58-2.63-.23-3.8.68-1.14.88-2.49,2.05-3.97,2.18-1.95.16-3.68.07-4.97,0-.15,0-.12-.16-.11-.25.11-.85.31-2.73.35-3.64.78.39,1.52.77,2.3,1.05,1.83.65,3.58.41,5.3-.42,1.05-.51,2.08-1.06,3.23-1.29,1.75-.35,3.38.05,4.98.67.78.31,1.58.56,2.42.7.66.11,1.32,0,2.04-.13-1.94,1.64-4,1.92-6.23,1.06Z"/>
</svg>