<?xml version="1.0" encoding="utf-8"?>
<!-- Generator: Adobe Illustrator 27.1.1, SVG Export Plug-In . SVG Version: 6.00 Build 0)  -->
<svg version="1.1" id="Layer_1" xmlns="http://www.w3.org/2000/svg" xmlns:xlink="http://www.w3.org/1999/xlink" x="0px" y="0px"
	 viewBox="0 0 500 405.5" style="enable-background:new 0 0 500 405.5;" xml:space="preserve">
<style type="text/css">
	.st0{fill:#F2F2F2;}
	.st1{fill:#E6E6E6;}
	.st2{fill:#FFFFFF;}
	.st3{fill:#CCCCCC;}
	.st4{fill:#A0616A;}
	.st5{fill:#3F3D56;}
	.st6{fill:#2F2E41;}
	.st7{fill:#FFB8B8;}
</style>
<g>
	<path class="st0" d="M399,74c-2.6,28.6-10,58.7-21.6,87.8c-14.3,36-33.9,67.6-56.6,91.6l-1.3-1.1c22.6-23.8,42.1-55.4,56.4-91.2
		c12.9-32.4,20.6-66,22.2-97.4l1.6,0.3C399.5,67.3,399.3,70.7,399,74z"/>
	<path class="st0" d="M409.3,240c-31.9,50.8-70.6,87-109,102.1l-0.8-1.4c38.1-15,76.6-51.1,108.4-101.6L409.3,240z"/>
	<path class="st0" d="M398.2,109.6c-2.6,28.6-10,58.7-21.6,87.8c-14.3,36-33.9,67.6-56.6,91.6l-1.3-1.1
		c22.6-23.8,42.1-55.4,56.4-91.2c12.9-32.4,20.6-66,22.2-97.4l1.6,0.3C398.7,102.9,398.5,106.3,398.2,109.6z"/>
	<path class="st1" d="M40,183H19.1c-0.9,0-1.8-0.4-2.3-1.1c-0.6-0.7-0.8-1.6-0.6-2.5c2-8.8,1.9-17.9-0.4-26.7
		c-0.3-1.2,0.2-2.4,1.2-3.1c10.8-7.7,19.2-7.5,25.2,0.7c0.3,0.4,0.4,0.8,0.5,1.3c1.6,9.6,1.7,19.3,0.3,28.9
		C42.8,181.9,41.5,183,40,183z"/>
	<path class="st2" d="M33.5,162h-7.2c-0.8,0-1.5-0.7-1.5-1.5s0.7-1.5,1.5-1.5h7.2c0.8,0,1.5,0.7,1.5,1.5C35,161.4,34.4,162,33.5,162
		L33.5,162z"/>
	<path class="st2" d="M33.5,167.3h-7.2c-0.8,0-1.5-0.7-1.5-1.5c0-0.8,0.7-1.5,1.5-1.5h7.2c0.8,0,1.5,0.7,1.5,1.5
		C35,166.6,34.4,167.3,33.5,167.3L33.5,167.3z"/>
	<path class="st2" d="M33.5,172.6h-7.2c-0.8,0-1.5-0.7-1.5-1.5c0-0.8,0.7-1.5,1.5-1.5h7.2c0.8,0,1.5,0.7,1.5,1.5
		C35,171.9,34.4,172.6,33.5,172.6L33.5,172.6z"/>
	<path class="st1" d="M420.5,276.5h-20.9c-0.9,0-1.8-0.4-2.3-1.1c-0.6-0.7-0.8-1.6-0.6-2.5c2-8.8,1.9-17.9-0.4-26.7
		c-0.3-1.2,0.2-2.4,1.2-3.1c10.8-7.7,19.2-7.5,25.2,0.7c0.3,0.4,0.4,0.8,0.5,1.3c1.6,9.6,1.7,19.3,0.3,28.9
		C423.2,275.4,421.9,276.5,420.5,276.5z"/>
	<path class="st2" d="M414,255.5h-7.2c-0.8,0-1.5-0.7-1.5-1.5c0-0.8,0.7-1.5,1.5-1.5h7.2c0.8,0,1.5,0.7,1.5,1.5
		C415.5,254.8,414.8,255.5,414,255.5L414,255.5z"/>
	<path class="st2" d="M414,260.8h-7.2c-0.8,0-1.5-0.7-1.5-1.5c0-0.8,0.7-1.5,1.5-1.5h7.2c0.8,0,1.5,0.7,1.5,1.5
		C415.5,260.1,414.8,260.8,414,260.8L414,260.8z"/>
	<path class="st2" d="M414,266h-7.2c-0.8,0-1.5-0.7-1.5-1.5c0-0.8,0.7-1.5,1.5-1.5h7.2c0.8,0,1.5,0.7,1.5,1.5
		C415.5,265.4,414.8,266,414,266L414,266z"/>
	<path class="st3" d="M499.7,404.5c0,0.4-0.3,0.8-0.8,0.8c0,0,0,0,0,0H1.1c-0.4,0-0.8-0.4-0.8-0.8s0.4-0.8,0.8-0.8l0,0h497.8
		C499.3,403.7,499.7,404,499.7,404.5C499.7,404.5,499.7,404.5,499.7,404.5z"/>
	<path class="st0" d="M131.6,356.5l-1.3-18.2c-8.6-4.3-18-6.4-27.6-6.2c13.4,10.4,12.4,31.2,21.7,45.4c6,8.9,15.6,14.7,26.3,15.6
		l11.2,6.4c2.6-17.1-2.4-34.5-13.8-47.6c-3.2-3.6-6.8-6.8-10.8-9.5C135,349.6,131.6,356.5,131.6,356.5z"/>
	<path class="st0" d="M368.4,359.2l1.3-18.2c8.6-4.3,18-6.4,27.6-6.2c-13.4,10.4-12.4,31.2-21.7,45.4c-6,8.9-15.6,14.7-26.3,15.6
		l-11.2,6.4c-2.6-17.1,2.4-34.5,13.8-47.6c3.2-3.6,6.8-6.8,10.8-9.5C365,352.2,368.4,359.2,368.4,359.2z"/>
	<circle cx="244.1" cy="141.7" r="12.5"/>
	<path class="st2" d="M250.5,136.5c-0.4-0.4-1-0.4-1.4,0c-2.7,2.1-5,4.6-7.1,7.2c-0.5-1-1-2-1.5-2.9c-0.6-1.1-2.3-0.1-1.7,1
		c0.7,1.4,1.5,2.9,2.2,4.3c0.3,0.5,0.9,0.6,1.4,0.3c0.1-0.1,0.2-0.2,0.3-0.3c2.2-3.1,4.8-5.9,7.8-8.2
		C250.9,137.5,250.9,136.9,250.5,136.5z"/>
	<path class="st4" d="M188.1,177.2l-18.9-29.6l21.8-11.7l5.7,22.6l40.4,21.8c4.5-1.6,9.5,0.7,11.2,5.3c1.6,4.5-0.7,9.5-5.3,11.2
		c-4.3,1.5-9-0.4-10.9-4.6L188.1,177.2z"/>
	<path class="st5" d="M155.5,112.1c-5.9,8.7,15.1,40.3,15.1,40.3c1-2.2,10.8,22.6,12.5,21.2c4.7-4.2,12-15.8,16-16.3
		c2.3-0.3-5.4-16.8-5.4-16.8s-3.5-9.7-8.3-22.2c-2.6-7.2-8.7-12.5-16.2-14.2C169.2,104.1,161.4,103.4,155.5,112.1z"/>
	<polygon class="st4" points="155.8,395.5 164.7,395.5 169,361 155.8,361 	"/>
	<path class="st6" d="M153.5,392.6l2.5,0l9.8-4l5.3,4h0c6.2,0,11.2,5,11.2,11.2v0.4l-28.9,0L153.5,392.6z"/>
	<polygon class="st4" points="197.4,395.5 206.3,395.5 210.6,361 197.4,361 	"/>
	<path class="st6" d="M195.1,392.6l2.5,0l9.8-4l5.3,4h0c6.2,0,11.2,5,11.2,11.2v0.4l-28.9,0L195.1,392.6z"/>
	<path class="st6" d="M201.3,206.6l-58.3,1.5c-11.1,6-11.2,19-7.6,34.5c0,0-1.2,9.2,1.2,11.6c2.4,2.4,3.7,2.4,2.4,6.7
		c-1.2,4.3,5.2,11.3,4.5,12.1c-0.8,0.8-2.6,5.1-2.6,5.1l6.1,34.9c0,0,4.3,60.6,5.5,61.8c1.2,1.2,2.4,0,1.2,3.1
		c-1.2,3.1-2.4,1.8-1.2,3.1c1.1,1.2,2.1,2.4,3.1,3.7h14.8c0,0,1.1-6.1,1.1-6.7s1.2-4.3,1.2-4.9s-1.1-1.7-1.1-1.7
		c-0.4-1.2-0.6-2.5-0.8-3.8c0-1.2-3.7-48.3-3.7-48.3l7.3-61.2l17.7,60c0,0,0,52.6,1.2,53.8c1.2,1.2,1.2,0.6,0.6,3.1
		c-0.6,2.4-3.1,1.8-1.2,3.7c1.8,1.8,2.4-1.2,1.8,1.8l-0.6,3.1l18.4,0.3c0,0,2.4-5.2,1.2-7c-1.2-1.8-1.2-1.3,0.3-4.3s2.1-3.6,1.5-4.2
		c-0.6-0.6-0.6-3.9-0.6-3.9l-3.1-58.5c0,0-0.6-61.8-0.6-63.6c0-0.9,0.1-1.9,0.5-2.8v-2.5l-2.3-8.8L201.3,206.6z"/>
	<circle class="st4" cx="166.3" cy="67.4" r="18.1"/>
	<path class="st5" d="M175.3,97.5c3.9,2.3,6.2,6.6,7.6,10.9c2.5,8,4,16.3,4.4,24.7l1.4,25.1l17.5,53.5c-15.2,12.8-72.2,2.9-72.2,2.9
		s-1.8-0.6,0-2.3c1.8-1.8,3.5-0.2,1.7-2c-1.8-1.8-0.5,0.2,0-1.6c0.6-1.8,0-0.6-0.6-1.2c-0.6-0.6,4.5-5.8,4.5-5.8L135,171l-5.8-61.9
		c7-8.8,21.1-13.9,21.1-13.9l3.6-6.6l18.2,1.5L175.3,97.5z"/>
	<path class="st6" d="M181.2,57.8c1.4,1,2.4,2.5,3,4.2c0.2-2.7,0.2-5.5,0-8.2c-0.2-1.9-1.6-2.4-3.1-2.9c-1.4-0.5-3-1-3.4-2.8
		c-5.7-5.5-15.6-5.3-22.4-3.3c-3.7,1.1-5.9,2.4-6.1,3.2l0,0.2l-0.2,0.1c-2.9,1.4-3.4,6-3.4,9.5c0.1,6.7,2.4,14.3,3.7,14.9
		c0.1,0,0.1,0,0.1,0l0,0c2-1.6,4.4,0.1,5.4,1c1.3-8.6,8.2-15.2,16.9-16c1.4-0.1,2.7-0.4,4.1-0.7c0.7-0.2,1.4-0.3,2.1-0.3
		C179,56.8,180.2,57.1,181.2,57.8z"/>
	<path class="st7" d="M293.5,221.1l34.8-35.4l9.2-28.3l-14.8-6c-7.3,7.4-14.8,30-14.8,30l-23.8,31.9c-0.2,0.1-0.4,0.1-0.6,0.2
		c-3.5,1.7-5,5.9-3.4,9.4c1.7,3.5,5.9,5,9.4,3.4C291.7,225.3,293.2,223.3,293.5,221.1z"/>
	<path d="M318.7,154.7l18.7,5.4l0.1,0c6.9-1.3,12.3-12.7,15.6-22.1c2.3-6.4-0.8-13.5-7-16.2l0,0c-4.5-1.9-9.8-1.1-13.5,2.1l-9.3,8
		L318.7,154.7z"/>
	<polygon class="st7" points="302.8,394.4 292.7,394.4 288,355.7 302.8,355.7 	"/>
	<path class="st6" d="M305.3,391.2l-2.8,0l-11-4.5l-5.9,4.5h0c-7,0-12.6,5.6-12.6,12.6v0.4l32.4,0L305.3,391.2z"/>
	<polygon class="st7" points="347.3,394.4 337.3,394.4 332.5,355.7 347.3,355.7 	"/>
	<path class="st6" d="M349.9,391.2l-2.8,0l-11-4.5l-5.9,4.5h0c-7,0-12.6,5.6-12.6,12.6v0.4l32.4,0L349.9,391.2z"/>
	<path class="st6" d="M362.6,227.6c0,0,1.2,14.1-1.8,27.5c-2.9,13.5-2.9,51.5-2.9,51.5l-6.4,74l-19.3-1.8l-5.3-123.7l-18.8,41.6
		l1.8,5.9l-2.3,1.5c0,0,1.8,11.4,0.6,11.4c-1.2,0-4.1,1.8-4.1,1.8l2.3,60.4l-19.9-0.6l-7-85l7.6-48.7l0.6-9.4l2.6,0.1l1.3-3.9
		l2.5-6.7L362.6,227.6z"/>
	<path d="M363.6,230.6l0.1-0.1c5.6-7.8-2.8-26.6-4.1-29.3l5.3-1.7l-1.2-10.2l-0.6-4.5l4.1-4.1l0-0.1l2.3-20.5l3.4-13.6
		c2.6-10.5-0.6-21.6-8.5-29l-7.9-7.4l-9.6-14.2h-15.4l-5.3,10c-10.6,2.4-17.9,12.1-17.4,23l1.2,26.2l-4.7,32.7l0,5.9l-5.3,5.9
		l1.2,5.8l-4,1.7l-1.8,8.3c-0.7,1-5.6,7.4-5.6,9.2c0,0.3,0.2,0.5,0.6,0.8c3.3,2.2,21.6,6.8,29.7,3.6c8.6-3.4,42.9,1.7,43.2,1.8
		L363.6,230.6z"/>
	<circle class="st7" cx="337.4" cy="70.7" r="20.5"/>
	<path class="st6" d="M335.5,91.5c3.2,0,6.3-0.3,9.4-0.9c3.1-0.7,9.9-6,11.7-9.1l0,0c1.4-2.3,2.2-5.9,2.7-8.5
		c1.2-6.9-0.5-14.1-4.9-19.6c-0.8-1.2-1.9-2.1-3.2-2.6c-0.1,0-0.2-0.1-0.4-0.1c-1.9-0.4-3.6-1.4-4.9-2.9c-0.3-0.3-0.5-0.6-0.8-0.8
		c-1.5-1.2-3.2-2-5-2.4c-3-0.7-7.2,0.2-12.7,2.7c-2.7,1.2-5.8,0.9-8.1,0.5c-0.3,0-0.5,0.1-0.7,0.3c-1,1-2.3,1.5-3.6,1.5
		c-0.8,0.1-1.7,1.2-2.7,2.8c-0.2,0.3-0.5,0.7-0.7,1l0-0.5l-0.5,0.5c-2.3,2.7-2,6.8,0.7,9.2c0.7,0.6,1.6,1.1,2.5,1.3
		c0.8,0.2,1.7,0.3,2.6,0.3c0.5,0,1.1,0.1,1.6,0.1c3.4,0.6,6.2,2.9,7.4,6.2c0.5,1.3,2,2,3.3,1.5c0.2-0.1,0.4-0.2,0.6-0.3
		c1.1-0.9,2.5-1.2,3.8-0.8c0.6,0.3,1,0.8,1.3,1.4c0.3,0.7,0.8,1.2,1.4,1.6c2.1,1,2.4,5.8,1.7,9.8c-0.6,3.9-2,6.7-3.3,6.9
		c-1,0.1-1.1,0.2-1.2,0.4l-0.1,0.2l0.1,0.1C334.2,91.5,334.9,91.6,335.5,91.5z"/>
	<path class="st7" d="M318.5,156.9l-9.8-12.5c-10,2.8-27.8,18.6-27.8,18.6l-36.5,15.8c-3.8-0.6-7.5,1.9-8.1,5.8
		c-0.6,3.8,1.9,7.5,5.8,8.1c2.5,0.4,5-0.5,6.6-2.5l47.8-13.3L318.5,156.9z"/>
	<path d="M316.1,159.7l15.5-17.3l0.9-12.3c0.3-4.9-2.2-9.6-6.4-12l0,0c-5.9-3.4-13.4-1.6-17.1,4.1c-5.5,8.3-11.4,19.4-8.3,25.7
		l0,0.1L316.1,159.7z"/>
	<path class="st1" d="M173.2,224.7l-40.3-20.6c-2.9-1.5-3.8-5.4-2.1-8.7l26.3-51.3c1.7-3.3,5.4-4.8,8.3-3.4l40.3,20.6
		c2.9,1.5,3.8,5.4,2.1,8.7l-26.3,51.3C179.7,224.7,176,226.2,173.2,224.7z"/>
	<path class="st2" d="M166.3,215.2l-27.4-14c-2.7-1.4-3.6-5-2-8.1l21.8-42.6c1.6-3.1,5.1-4.5,7.8-3.1l33.1,16.9c2.7,1.4,3.6,5,2,8.1
		l-11.9,23.2C182.6,209.4,178.2,221.4,166.3,215.2z"/>
	<path d="M179.8,192l-24.3-12.4c-0.7-0.5-0.8-1.4-0.4-2.1c0.4-0.5,1.1-0.8,1.7-0.6l24.3,12.4c0.7,0.5,0.8,1.4,0.4,2.1
		C181.1,191.9,180.4,192.2,179.8,192z"/>
	<path d="M158.4,187.7l-5.5-2.8c-0.7-0.5-0.8-1.4-0.4-2.1c0.4-0.5,1.1-0.8,1.7-0.6l5.5,2.8c0.7,0.5,0.8,1.4,0.4,2.1
		C159.7,187.6,159,187.9,158.4,187.7z"/>
	<path d="M165.5,198l-15.3-7.9c-0.7-0.5-0.8-1.4-0.4-2.1c0.4-0.5,1.1-0.8,1.7-0.6l15.3,7.9c0.7,0.5,0.8,1.4,0.4,2.1
		C166.8,197.9,166.1,198.2,165.5,198L165.5,198z"/>
	<path d="M189.4,173.2l-24.3-12.4c-0.7-0.5-0.8-1.4-0.4-2.1c0.4-0.5,1.1-0.8,1.7-0.6l24.3,12.4c0.7,0.5,0.8,1.4,0.4,2.1
		C190.7,173.2,190,173.4,189.4,173.2z"/>
	<path d="M168,168.9l-5.5-2.8c-0.7-0.5-0.8-1.4-0.4-2.1c0.4-0.5,1.1-0.8,1.7-0.6l5.5,2.8c0.7,0.5,0.8,1.4,0.4,2.1
		C169.3,168.9,168.6,169.1,168,168.9z"/>
	<path d="M175.1,179.2l-15.3-7.9c-0.7-0.5-0.8-1.4-0.4-2.1c0.4-0.5,1.1-0.8,1.7-0.6l15.3,7.9c0.7,0.5,0.8,1.4,0.4,2.1
		C176.4,179.2,175.7,179.4,175.1,179.2L175.1,179.2z"/>
	<path class="st4" d="M139.7,180.1l-9.1-33.9l24.3-4.6l-1.3,23.3l32,32.9c4.8-0.2,8.9,3.5,9.1,8.4c0.2,4.8-3.5,8.9-8.4,9.1
		c-4.5,0.2-8.4-3.1-9-7.6L139.7,180.1z"/>
	<path class="st5" d="M128.1,108.1c-8.3,6.5,2.3,43,2.3,43c1.6-1.8,3.5,24.8,5.6,23.9c5.7-2.6,16.2-11.5,20.2-10.7
		c2.3,0.4-0.1-17.6-0.1-17.6s-0.4-10.3-1.3-23.6c-0.3-7.6-4.6-14.6-11.2-18.4C143.6,104.7,136.4,101.6,128.1,108.1z"/>
	<path class="st1" d="M265.6,255.3l-22-10.4c-1-0.4-1.6-1.3-1.9-2.3c-0.2-1,0-2.1,0.6-2.9c6.4-8.1,10.7-17.7,12.8-27.8
		c0.3-1.6,1.7-2.8,3.4-2.8c11.2,0,19.6,4.1,24.9,12.2c0.6,0.8,0.7,1.9,0.5,2.9c-3.1,10.6-7.8,20.7-13.9,29.9
		C269,255.5,267.2,256.1,265.6,255.3z"/>
	<path class="st2" d="M272.1,240.7l-16.8-7.9c-0.9-0.4-1.2-1.5-0.8-2.3c0.4-0.9,1.5-1.2,2.3-0.8l0,0l16.8,7.9
		c0.9,0.4,1.2,1.5,0.8,2.3C274,240.8,273,241.2,272.1,240.7L272.1,240.7z"/>
	<path class="st2" d="M274.7,235.2l-16.8-7.9c-0.9-0.4-1.2-1.5-0.8-2.3c0.4-0.9,1.5-1.2,2.3-0.8l0,0l16.8,7.9
		c0.9,0.4,1.2,1.5,0.8,2.3C276.6,235.2,275.6,235.6,274.7,235.2L274.7,235.2L274.7,235.2z"/>
	<path class="st0" d="M252.2,61.5l-1.6,0.2c-7-27.4-20.5-46.4-39.1-55c-23.7-10.8-52.9-3.6-82.4,20.5
		C99.5,51.4,73.2,89.5,55.2,134.7l-1.5-0.7c18.1-45.4,44.4-83.7,74.2-108c29.9-24.4,59.8-31.8,84.1-20.6
		C231.2,14.1,245.1,33.5,252.2,61.5z"/>
	<path class="st0" d="M79.5,97.2c-4.1,8.6-8,17.6-11.6,26.6c-20.6,51.8-31.1,104.7-30.2,153l-1.6-0.2
		c-0.9-48.5,9.6-101.5,30.3-153.5c3.6-9,7.5-18,11.6-26.6L79.5,97.2z"/>
	<path class="st0" d="M78.7,132.8c-4.1,8.6-8,17.6-11.6,26.6C46.5,211.2,36,264,36.9,312.3l-1.6-0.2c-0.9-48.5,9.6-101.5,30.3-153.5
		c3.6-9,7.5-18,11.6-26.6L78.7,132.8z"/>
	<ellipse transform="matrix(0.5539 -0.8326 0.8326 0.5539 -104.9803 88.1183)" class="st3" cx="29.7" cy="142" rx="5.8" ry="6.7"/>
	
		<ellipse transform="matrix(0.5539 -0.8326 0.8326 0.5539 -16.1781 447.4568)" class="st3" cx="409.5" cy="238.8" rx="5.8" ry="6.7"/>
</g>
</svg>
