<?xml version="1.0" encoding="utf-8"?>
<!-- Generator: Adobe Illustrator 27.1.1, SVG Export Plug-In . SVG Version: 6.00 Build 0)  -->
<svg version="1.1" id="Layer_2" xmlns="http://www.w3.org/2000/svg" xmlns:xlink="http://www.w3.org/1999/xlink" x="0px" y="0px"
	 viewBox="0 0 500 370" style="enable-background:new 0 0 500 370;" xml:space="preserve">
<style type="text/css">
	.st0{fill:#F2F2F2;}
	.st1{fill:#FFFFFF;}
	.st2{fill:#3F3D56;}
	.st3{fill:#E6E6E6;}
</style>
<g>
	<path class="st0" d="M161,361c5.8-4.9,9.4-12.7,8.5-20.3c-0.9-7.6-6.7-14.6-14.2-16.2c-7.5-1.6-16,2.9-18.3,10.2
		c-1.3-14.1-2.7-28.8-10.2-40.8c-6.8-10.9-18.5-18.6-31.3-20c-12.7-1.4-26.1,3.9-34.1,13.9s-9.9,24.7-4.3,36.2
		c4.1,8.5,11.6,14.8,19.6,20c25.6,16.5,56.2,23.2,86.3,18.9"/>
	<path class="st1" d="M74.1,277.9c10.5,8.6,20.1,18.1,28.8,28.6c13.5,16.3,24.4,34.6,32.4,54.2c0.6,1.4-1.7,2.1-2.3,0.6
		c-5.1-12.4-11.3-24.3-18.7-35.4c-11.5-17.5-25.6-33.1-41.8-46.3C71.2,278.7,72.9,277,74.1,277.9z"/>
	<path class="st0" d="M165.1,361c-5.8-4.9-9.4-12.7-8.5-20.3c0.9-7.6,6.7-14.6,14.2-16.2c7.5-1.6,16,2.9,18.3,10.2
		c1.3-14.1,2.7-28.8,10.2-40.8c6.8-10.9,18.5-18.6,31.3-20c12.7-1.4,26.1,3.9,34.1,13.9s9.9,24.7,4.3,36.2
		c-4.1,8.5-11.6,14.8-19.6,20c-25.6,16.5-56.2,23.2-86.3,18.9"/>
	<path class="st1" d="M252,277.9c-10.5,8.6-20.1,18.1-28.8,28.6c-13.5,16.3-24.4,34.6-32.4,54.2c-0.6,1.4,1.7,2.1,2.3,0.6
		c13-31.9,33.9-60,60.6-81.7C254.9,278.7,253.2,277,252,277.9L252,277.9z"/>
	<circle class="st0" cx="182.4" cy="173.1" r="19.6"/>
	<path class="st0" d="M122,105.6H257v7.4H139.3c-29.1,0-52.7,23.6-52.7,52.7c0,0,0,0,0,0v83.9H71.8c-1.4,0-2.5-1.1-2.5-2.5v-88.8
		C69.3,129.2,92.9,105.6,122,105.6C122,105.6,122,105.6,122,105.6z"/>
	<path class="st2" d="M148,361.4V249.2h32.9v112.1c0,1.6-1.3,2.8-2.8,2.8h-27.2C149.3,364.2,148,363,148,361.4z"/>
	<path class="st2" d="M62.4,247v-91.2c0-30.2,24.5-54.7,54.8-54.8h139.2v149.1H65.5C63.8,250.2,62.4,248.8,62.4,247z M255.1,102.4
		H117.1c-29.5,0-53.5,24-53.5,53.5V247c0,1,0.8,1.9,1.9,1.9h189.5V102.4z"/>
	<path d="M182.4,183.2c-6.3,0-11.4-5.1-11.4-11.4V90.3c0-1-0.8-1.9-1.9-1.9h-44.2c-1.7,0-3.2-1.4-3.2-3.2V55.6
		c0-1.7,1.4-3.2,3.2-3.2h65.7c1.7,0,3.2,1.4,3.2,3.2v116.3C193.8,178.1,188.7,183.2,182.4,183.2z"/>
	<path class="st2" d="M261.4,99.8L261.4,99.8c19.8,0,36,16,36,35.9v103.8h70.8c5.9,0,10.7,4.8,10.7,10.7H225.4V135.7
		C225.4,115.8,241.6,99.8,261.4,99.8z"/>
	<path class="st1" d="M252.8,158.9l7.5,30.8l145.9-35.3l-7.5-30.8c-0.2-0.8-0.7-1.4-1.5-1.6c-0.3-0.1-0.6-0.1-0.8-0.1L312,78.2
		c-1-0.5-2.3-0.2-2.9,0.7l-40.6,56.7l-15.3,21.4c-0.1,0.1-0.1,0.2-0.1,0.3C252.7,157.7,252.6,158.4,252.8,158.9z"/>
	<path class="st2" d="M253,157.2c0,0.1,0.1,0.2,0.1,0.2c0.1,0.1,0.2,0.1,0.3,0.1c0.1,0,0.1-0.1,0.2-0.1l0.1-0.1l0.8-1.1L269,136
		l40.6-56.7c0.5-0.7,1.4-0.9,2.1-0.5l83.7,43.3l0.8,0.4c0,0,0.1,0,0.1,0c0.1,0,0.1,0,0.2,0c0.1,0,0.1-0.1,0.2-0.2
		c0.1-0.2,0-0.4-0.1-0.4c0,0,0,0,0,0l-0.1-0.1L312,78.2c-1-0.5-2.3-0.2-2.9,0.7l-40.6,56.7l-15.3,21.4C253,157,253,157.1,253,157.2z
		"/>
	<path class="st3" d="M296.8,160.4l3.2,0.4l24.1,2.7l16,1.8l0.9,0.1l19.9-15.6l0.8-0.6l4.7-3.7l16.8-13.1l0.1-0.9l6-53.8
		c0.2-1.5-0.9-2.9-2.5-3.1l-79.5-8.8c-1.5-0.2-2.9,0.9-3.1,2.5l-4.2,37.9l-2.3,21l-2.1,18.8l-1,8.7l-0.3,2.5
		C294.2,158.8,295.3,160.2,296.8,160.4z"/>
	<path class="st1" d="M318.7,113.2l34.4,3.8l12.2,1.4c2.3,0.3,4.3-1.4,4.6-3.7c0.3-2.3-1.4-4.3-3.7-4.6l0,0l-15.2-1.7l-31.5-3.5
		c-2.3-0.3-4.3,1.4-4.6,3.7C314.8,110.9,316.4,113,318.7,113.2z"/>
	<path class="st1" d="M316.7,128.5c0.1,0,0.2,0,0.3,0l40,4.4l6.7,0.7c2.3,0.3,4.3-1.4,4.6-3.7c0.3-2.3-1.4-4.3-3.7-4.6l0,0l-9.7-1.1
		l-31.7-3.5l-5.3-0.6c-2.3-0.3-4.3,1.4-4.6,3.6C313.1,126.1,314.6,128.1,316.7,128.5L316.7,128.5z"/>
	<path class="st1" d="M312.2,142c0.7,1.1,1.8,1.8,3.1,2l16.4,1.8l29.2,3.2l0,0l0.9,0.1l4.7-3.7c0-0.3,0-0.6,0-0.8
		c-0.2-1.9-1.7-3.5-3.7-3.7l-4.1-0.5l-16.1-1.8l-11.6-1.3l-14.9-1.7c-2.3-0.3-4.3,1.4-4.6,3.7C311.5,140.3,311.7,141.2,312.2,142
		L312.2,142z"/>
	<path class="st1" d="M335.2,94.6l8.6,0.9l3.8,0.4l5.7,0.6c2.3,0.3,4.3-1.4,4.6-3.7c0.3-2.3-1.4-4.3-3.7-4.6l0,0l-18.1-2
		c-2.3-0.3-4.3,1.4-4.6,3.7C331.3,92.3,333,94.3,335.2,94.6L335.2,94.6L335.2,94.6z"/>
	<path d="M265.1,117.5l10.4,43.2L293,164l16.1,3.1l17.3,3.3l5.5,1.1c0.7,0.1,1.3,0,1.9-0.4l4.4-3.5l2.8-2.2l19.9-15.6l-12.7-52.4
		c-0.1-0.5-0.4-1-0.8-1.4c-0.7-0.7-1.7-0.9-2.6-0.7l-77.8,18.8C265.7,114.4,264.8,116,265.1,117.5z"/>
	<path class="st1" d="M289.1,151.8c0.5,2.2,2.8,3.6,5,3l45.6-11c2.2-0.5,3.6-2.8,3-5c0-0.1,0-0.1,0-0.2c-0.6-2.1-2.8-3.4-4.9-2.9
		l-45.6,11C289.9,147.4,288.6,149.6,289.1,151.8z"/>
	<path class="st1" d="M293,164l16.1,3.1l34.2-8.3c2.2-0.5,3.6-2.8,3-5c-0.5-2.2-2.8-3.6-5-3l-45.6,11c-1,0.2-1.8,0.8-2.4,1.6
		C293.3,163.5,293.1,163.7,293,164z"/>
	<path class="st1" d="M326.5,170.3l5.5,1.1c0.7,0.1,1.3,0,1.9-0.4l4.4-3.5L326.5,170.3z"/>
	<path class="st1" d="M298.3,128.7c0.5,2.2,2.8,3.6,5,3l17.7-4.3c2.2-0.5,3.6-2.8,3-5c-0.1-0.6-0.4-1.1-0.8-1.6
		c-1-1.3-2.7-1.9-4.2-1.5l-17.7,4.3C299.1,124.2,297.8,126.4,298.3,128.7L298.3,128.7z"/>
	<path class="st1" d="M309.2,167l17.3,3.3l5.5,1.1c0.7,0.1,1.3,0,1.9-0.4l4.4-3.5l-1.6,0.4l-3.3,2.6c-0.4,0.3-0.9,0.4-1.3,0.3
		l-4.1-0.8l-17.3-3.3L309.2,167z M360.9,149l0.2,0.7l0.8-0.6L360.9,149z M309.2,167l17.3,3.3l5.5,1.1c0.7,0.1,1.3,0,1.9-0.4l4.4-3.5
		l-1.6,0.4l-3.3,2.6c-0.4,0.3-0.9,0.4-1.3,0.3l-4.1-0.8l-17.3-3.3L309.2,167z M309.2,167l17.3,3.3l5.5,1.1c0.7,0.1,1.3,0,1.9-0.4
		l4.4-3.5l-1.6,0.4l-3.3,2.6c-0.4,0.3-0.9,0.4-1.3,0.3l-4.1-0.8l-17.3-3.3L309.2,167z M252.8,158.9l19.5,80.7c0.3,1.2,1.6,2,2.8,1.7
		l141.4-34.2c1.2-0.3,2-1.6,1.7-2.8l-19.5-80.7c-0.2-0.8-0.7-1.4-1.5-1.6c-0.3-0.1-0.6-0.1-0.8-0.1c-0.3,0-0.7,0.1-1,0.3
		c-0.1,0.1-0.3,0.1-0.4,0.2l-11.6,9.1l-16.9,13.2l-5.6,4.4l0,0l0,0l-20.7,16.2l-3.4,2.7l-3.3,2.6c-0.4,0.3-0.9,0.4-1.3,0.3l-4.1-0.8
		l-17.3-3.3l-17.3-3.3l-37.9-7.2c-0.3-0.1-0.7-0.1-1,0c-0.4,0.1-0.8,0.3-1.1,0.7c-0.1,0.1-0.2,0.3-0.3,0.4
		C252.7,157.7,252.6,158.4,252.8,158.9L252.8,158.9z M309.2,167l17.3,3.3l5.5,1.1c0.7,0.1,1.3,0,1.9-0.4l4.4-3.5l-1.6,0.4l-3.3,2.6
		c-0.4,0.3-0.9,0.4-1.3,0.3l-4.1-0.8l-17.3-3.3L309.2,167z M309.2,167l17.3,3.3l5.5,1.1c0.7,0.1,1.3,0,1.9-0.4l4.4-3.5l-1.6,0.4
		l-3.3,2.6c-0.4,0.3-0.9,0.4-1.3,0.3l-4.1-0.8l-17.3-3.3L309.2,167z M309.2,167l17.3,3.3l5.5,1.1c0.7,0.1,1.3,0,1.9-0.4l4.4-3.5
		l-1.6,0.4l-3.3,2.6c-0.4,0.3-0.9,0.4-1.3,0.3l-4.1-0.8l-17.3-3.3L309.2,167z"/>
	<path class="st2" d="M309.2,167l17.3,3.3l5.5,1.1c0.7,0.1,1.3,0,1.9-0.4l4.4-3.5l-1.6,0.4l-3.3,2.6c-0.4,0.3-0.9,0.4-1.3,0.3
		l-4.1-0.8l-17.3-3.3L309.2,167z M360.9,149l0.2,0.7l0.8-0.6L360.9,149z M309.2,167l17.3,3.3l5.5,1.1c0.7,0.1,1.3,0,1.9-0.4l4.4-3.5
		l-1.6,0.4l-3.3,2.6c-0.4,0.3-0.9,0.4-1.3,0.3l-4.1-0.8l-17.3-3.3L309.2,167z M309.2,167l17.3,3.3l5.5,1.1c0.7,0.1,1.3,0,1.9-0.4
		l4.4-3.5l-1.6,0.4l-3.3,2.6c-0.4,0.3-0.9,0.4-1.3,0.3l-4.1-0.8l-17.3-3.3L309.2,167z M253.7,157.3L253.7,157.3c0.1,0,0.1,0,0.1,0
		c0.4-0.4,1-0.6,1.5-0.5l37.7,7.2l16.1,3.1l17.3,3.3l5.5,1.1c0.7,0.1,1.3,0,1.9-0.4l4.4-3.5l-1.6,0.4l-3.3,2.6
		c-0.4,0.3-0.9,0.4-1.3,0.3l-4.1-0.8l-17.3-3.3l-17.3-3.3l-37.9-7.2c-0.3-0.1-0.7-0.1-1,0L253.7,157.3z M252.8,158.9l19.5,80.7
		c0.3,1.2,1.6,2,2.8,1.7l141.4-34.2c1.2-0.3,2-1.6,1.7-2.8l-19.5-80.7c-0.2-0.8-0.7-1.4-1.5-1.6c-0.3-0.1-0.6-0.1-0.8-0.1
		c-0.3,0-0.7,0.1-1,0.3c-0.1,0.1-0.3,0.1-0.4,0.2l-11.6,9.1l-16.9,13.2l-5.6,4.4l0,0l0,0l-20.7,16.2l-3.4,2.7l-3.3,2.6
		c-0.4,0.3-0.9,0.4-1.3,0.3l-4.1-0.8l-17.3-3.3l-17.3-3.3l-37.9-7.2c-0.3-0.1-0.7-0.1-1,0c-0.4,0.1-0.8,0.3-1.1,0.7
		c-0.1,0.1-0.2,0.3-0.3,0.4C252.7,157.7,252.6,158.4,252.8,158.9L252.8,158.9z M253.4,158.8c-0.1-0.5,0-1,0.3-1.4c0,0,0-0.1,0.1-0.1
		c0,0,0,0,0.1-0.1c0.4-0.4,1-0.6,1.5-0.5l37.7,7.2l16.1,3.1l17.3,3.3l5.5,1.1c0.7,0.1,1.3,0,1.9-0.4l4.4-3.5l2.8-2.2l19.9-15.6
		l0.8-0.6l4.7-3.7l16.8-13.1l12.1-9.5c0.2-0.1,0.4-0.2,0.6-0.3c0.1,0,0.1,0,0.2,0c0.1,0,0.1,0,0.2,0c0.2,0,0.4,0,0.6,0.1
		c0.5,0.2,0.9,0.6,1.1,1.2l19.5,80.7c0.2,0.9-0.3,1.8-1.2,2c0,0,0,0,0,0l-141.4,34.2c-0.9,0.2-1.8-0.3-2-1.2L253.4,158.8z
		 M309.2,167l17.3,3.3l5.5,1.1c0.7,0.1,1.3,0,1.9-0.4l4.4-3.5l-1.6,0.4l-3.3,2.6c-0.4,0.3-0.9,0.4-1.3,0.3l-4.1-0.8l-17.3-3.3
		L309.2,167z M309.2,167l17.3,3.3l5.5,1.1c0.7,0.1,1.3,0,1.9-0.4l4.4-3.5l-1.6,0.4l-3.3,2.6c-0.4,0.3-0.9,0.4-1.3,0.3l-4.1-0.8
		l-17.3-3.3L309.2,167z M309.2,167l17.3,3.3l5.5,1.1c0.7,0.1,1.3,0,1.9-0.4l4.4-3.5l-1.6,0.4l-3.3,2.6c-0.4,0.3-0.9,0.4-1.3,0.3
		l-4.1-0.8l-17.3-3.3L309.2,167z"/>
	<path d="M379.6,191.3c-0.7-2.8,1-5.5,3.8-6.2l17.8-4.3c2.8-0.7,5.5,1,6.2,3.8c0.7,2.7-1,5.5-3.8,6.2l-17.8,4.3
		C383.1,195.7,380.3,194,379.6,191.3z"/>
	<circle class="st1" cx="182.4" cy="171.9" r="4.4"/>
</g>
</svg>
