<?xml version="1.0" encoding="utf-8"?>
<!-- Generator: Adobe Illustrator 27.1.1, SVG Export Plug-In . SVG Version: 6.00 Build 0)  -->
<svg version="1.1" id="Layer_1" xmlns="http://www.w3.org/2000/svg" xmlns:xlink="http://www.w3.org/1999/xlink" x="0px" y="0px"
	 viewBox="0 0 500 500" style="enable-background:new 0 0 500 500;" xml:space="preserve">
<style type="text/css">
	.st0{fill:#FFB6B6;}
	.st1{fill:#2F2E41;}
	.st2{fill:#CCCCCC;}
	.st3{fill:#3F3D56;}
	.st4{fill:#FFFFFF;}
	.st5{fill:#E6E6E6;}
</style>
<g>
	<g>
		<path class="st0" d="M207.3,294.9c2.1,3.9,1.6,8.1-1,9.4c-2.6,1.2-6.4-0.8-8.4-4.7c-1-1.7-1.3-3.4-1.3-5.1l-8.6-16.7l8.2-3.7
			l7.7,16.9C205.1,291.9,206.3,293.3,207.3,294.9L207.3,294.9z"/>
		<g>
			<polygon class="st0" points="143.2,445.1 150.5,445.1 153.9,417.7 143.2,417.7 			"/>
			<path class="st1" d="M168.3,445L168.3,445c0.3,0.4,0.3,1.6,0.3,2l0,0c0,1.3-1.1,2.4-2.5,2.4h-22.7c-1,0-1.7-0.8-1.7-1.7v-0.9
				c0,0-1.1-2.7,1.1-6.1c0,0,2.9,2.7,7.2-1.5l1.2-2.2l9.2,6.5l5.1,0.7C166.7,444.3,167.8,444.1,168.3,445z"/>
		</g>
		<g>
			<polygon class="st0" points="108.6,445.1 116,445.1 119.5,417.7 108.6,417.7 			"/>
			<path class="st1" d="M133.8,445L133.8,445c0.3,0.4,0.3,1.6,0.3,2l0,0c0,1.3-1.1,2.4-2.5,2.4H109c-1,0-1.7-0.8-1.7-1.7v-0.9
				c0,0-1.1-2.7,1.1-6.1c0,0,2.9,2.7,7.2-1.5l1.2-2.2l9.2,6.5l5.1,0.7C132.3,444.3,133.2,444.1,133.8,445z"/>
		</g>
		<polygon class="st1" points="98.2,283.4 95.2,301.7 104.9,360.9 107.2,432.5 120.2,432.5 126.8,364.9 126.1,320.4 141.5,433.1 
			155.1,433.1 156.4,291.7 		"/>
		<path d="M114.4,188.5h24.3l21.1,12c-3.4-0.8-5.8,28.6-5.8,54.6c0,1.7-1.7,3.6-1.7,5.4c0,1.4,1.8,2.7,1.8,4c0,1.2,0.1,2.7,0.1,3.8
			c0,1.1-2,2.5-2,3.4c0.1,1.2,2.2,2.2,2.3,3.4c0.5,7.5,1.3,13.5,2.7,16.4c0,0-54.3,14.7-58.4-8c0,0,0.3-8.1,0.2-19.4c0-1-1-1.9-1-3
			c0-0.8,0.9-1.7,0.9-2.5c0-0.7-0.9-1.2-0.9-1.9c0-0.4,0.9-0.9,0.9-1.2c-0.3-21.4-1.8-48.3-7-55.2
			C91.7,200.5,114.4,188.5,114.4,188.5z"/>
		<path d="M138.5,188.5c0,0,15.7,5.6,20.8,10c2.7,2.3,20.5,46.6,20.5,46.6l24.7,41.8l-12.8,4.7L165.3,253l-11.7-25.3L138.5,188.5
			L138.5,188.5z"/>
		<path class="st0" d="M105.8,296.5c2.3,3.7,2.1,8-0.3,9.5c-2.4,1.4-6.4-0.5-8.7-4.3c-1-1.7-1.5-3.4-1.6-5l-9.5-16.2l8-4.2l8.5,16.4
			C103.5,293.5,104.9,294.9,105.8,296.5L105.8,296.5z"/>
		<path d="M111,209.1l-6.9-15.3c0,0-16.2,5-16.2,12.4c0,0-9.6,55.9-8.2,69.9l8.9,15.3l12.7-9.6l-7.9-17.6L111,209.1L111,209.1z"/>
		<polygon class="st1" points="96.9,308.6 104.9,293 114.4,305.6 105.9,313.7 		"/>
		<ellipse class="st0" cx="126.3" cy="168.9" rx="15.7" ry="15.2"/>
		<path class="st1" d="M138.6,151.8c-2.8-0.9-4-4-6.5-5.4c-2.8-1.5-6-2.5-9.1-1.6c-1.9,0.6-3.4,1.7-5.4,2.2c-0.3,0.1-0.7,0.2-1,0.2
			c-2,0.2-3.7,1.3-4.7,3.1v0.1c-0.6,1-1.4,1.7-2.1,2.7c-2.8,3.2-4.2,7.4-4.1,11.5c0,4.4,1.8,8.9,4.9,12.2l0.8-0.3
			c1.9,1.6,3.8,3.2,5.7,4.7c-1-3.6-2.1-7.4-1.5-11c0.6-3.6,3.2-7.4,6.9-8.1c1.4-0.3,3-0.1,4.3-0.6c1.4-0.4,2.7-1.8,2.2-3.2
			c0.9,2.2,4,2.1,6.3,3.1c5,2.2,3.2-1.2,7.5,2C143.9,155.6,149.4,155.2,138.6,151.8L138.6,151.8z"/>
	</g>
	<path class="st2" d="M66.6,448.9c0,0.6,0.5,1.1,1.1,1.1h364.6c0.6,0,1.1-0.5,1.1-1.1s-0.5-1.1-1.1-1.1H67.7
		C67.1,447.9,66.6,448.4,66.6,448.9z"/>
	<path class="st3" d="M384.6,450H225.1c-19.4,0-35.3-15.3-35.3-34.1V84.1c0-18.9,15.8-34.1,35.3-34.1h159.5
		c19.4,0,35.3,15.3,35.3,34.1v331.7C419.9,434.7,404.1,450,384.6,450L384.6,450z"/>
	<path class="st3" d="M419.9,172c-0.9,0-1.5,0.7-1.5,1.4v46.2c0,0.8,0.7,1.4,1.5,1.4s1.5-0.7,1.5-1.4v-46.2
		C421.4,172.6,420.7,172,419.9,172z"/>
	<path class="st4" d="M416.5,84.1v331.7c0,16.4-13.1,29.8-29.8,30.9l0,0c-0.3,0-0.5,0-0.8,0c-0.4,0-1,0-1.3,0c0,0-1.6-0.1-4.6-0.3
		c-3.1-0.3-7.5-0.6-12.9-1c-1.6-0.2-3.4-0.3-5.2-0.4c-3.6-0.3-7.7-0.7-12-1c-1.7-0.2-3.4-0.3-5.3-0.4c-9.3-0.8-19.6-1.7-30.6-2.7
		c-1.8-0.2-3.7-0.3-5.7-0.5c-0.5-0.1-1-0.1-1.5-0.2c-7.8-0.8-113.6-20.5-113.6-24.4V84.1c0-17.1,14.3-30.9,31.9-30.9h19.1
		c3.1,0,5.5,2.3,5.7,5.2c0,0.2,0.1,0.4,0.1,0.6c0.6,3,3.4,5.1,6.4,5.1h96.9c3.1,0,5.8-2.1,6.4-5.1c0-0.2,0.1-0.4,0.1-0.6
		c0.3-3,2.8-5.2,5.7-5.2h19.1C402.2,53.2,416.5,67.1,416.5,84.1z"/>
	<path class="st3" d="M189.2,137.3c-0.9,0-1.5,0.7-1.5,1.4v11.5c0,0.8,0.7,1.4,1.5,1.4s1.5-0.7,1.5-1.4v-11.5
		C190.6,138,189.9,137.3,189.2,137.3z"/>
	<path class="st3" d="M189.2,172c-0.9,0-1.5,0.7-1.5,1.4v22.3c0,0.8,0.7,1.4,1.5,1.4s1.5-0.7,1.5-1.4v-22.3
		C190.6,172.6,189.9,172,189.2,172z"/>
	<path class="st3" d="M189.2,203.8c-0.9,0-1.5,0.7-1.5,1.4v22.3c0,0.8,0.7,1.4,1.5,1.4s1.5-0.7,1.5-1.4v-22.3
		C190.6,204.4,189.9,203.8,189.2,203.8z"/>
	<path class="st5" d="M215.1,58.3h28.6c0.2,0,0.3,0.2,0.3,0.3v3.1c0,0.2-0.2,0.3-0.3,0.3h-28.6c-0.2,0-0.3-0.2-0.3-0.3v-3.1
		C214.8,58.3,214.9,58.3,215.1,58.3z"/>
	<ellipse class="st5" cx="370.2" cy="59" rx="3" ry="2.9"/>
	<ellipse class="st5" cx="378.5" cy="59" rx="3" ry="2.9"/>
	<ellipse class="st5" cx="386.6" cy="59" rx="3" ry="2.9"/>
	<path class="st5" d="M368.1,133.3H241.6c-2,0-3.6-1.6-3.6-3.5s1.6-3.5,3.6-3.5h126.6c2,0,3.6,1.6,3.6,3.5S370.1,133.3,368.1,133.3
		L368.1,133.3z"/>
	<path class="st5" d="M389.4,410.1h-47c-2,0-3.6-1.6-3.6-3.5s1.6-3.5,3.6-3.5h47c2,0,3.6,1.6,3.6,3.5
		C393,408.6,391.4,410.1,389.4,410.1z"/>
	<path class="st5" d="M263.8,410.1h-47c-2,0-3.6-1.6-3.6-3.5s1.6-3.5,3.6-3.5h47c2,0,3.6,1.6,3.6,3.5
		C267.4,408.6,265.7,410.1,263.8,410.1z"/>
	<rect x="216.7" y="142.6" class="st3" width="176.4" height="0.9"/>
	<path class="st5" d="M368.1,186.5H241.6c-2,0-3.6-1.6-3.6-3.5s1.6-3.5,3.6-3.5h126.6c2,0,3.6,1.6,3.6,3.5S370.1,186.5,368.1,186.5
		L368.1,186.5z"/>
	<rect x="216.7" y="196" class="st3" width="176.4" height="0.9"/>
	<path class="st5" d="M368.1,239.9H241.6c-2,0-3.6-1.6-3.6-3.5s1.6-3.5,3.6-3.5h126.6c2,0,3.6,1.6,3.6,3.5S370.1,239.9,368.1,239.9
		L368.1,239.9z"/>
	<rect x="216.7" y="249.4" class="st3" width="176.4" height="0.9"/>
	<rect x="216.7" y="294.9" class="st3" width="176.4" height="0.9"/>
	<rect x="216.7" y="340.4" class="st3" width="176.4" height="0.9"/>
	<ellipse cx="306" cy="321.6" rx="52.4" ry="50.8"/>
</g>
</svg>
