<?xml version="1.0" encoding="UTF-8"?>
<svg id="Layer_1" data-name="Layer 1" xmlns="http://www.w3.org/2000/svg" viewBox="0 0 42.99 50">
  <defs>
    <style>
      .cls-1 {
        fill: #010101;
      }
    </style>
  </defs>
  <path class="cls-1" d="m21.9,50h-.98c-1.41-.61-1.49-1.83-1.35-3.07-1.37-.05-2.67-.08-3.96-.16-1.41-.09-2.75-.47-4.07-.96-3.61-1.33-6.44-3.62-8.59-6.78-.91-1.34-1.65-2.78-2.1-4.33-.39-1.31-.69-2.68-.8-4.04-.13-1.73,0-3.48-.04-5.22-.03-1.12.88-2.04,2.06-2.01.83.02,1.65,0,2.51,0-.73-1.88-.99-3.81-.94-5.78,0-.3.06-.6.1-.9.1-.85.13-1.72.33-2.55.35-1.43.79-2.84,1.23-4.25.22-.72.46-1.51,1.27-1.77.55-.18,1.15-.25,1.73-.26,1.28-.01,2.55.07,3.83.06.25,0,.51-.07.72-.39.7-1.06,1.43-2.11,2.26-3.07.68-.79,1.5-1.47,2.31-2.13,1.15-.93,2.32-1.84,3.71-2.4.26,0,.52,0,.78,0,.16.08.34.15.49.25,1.26.9,2.56,1.75,3.77,2.71,1.6,1.26,2.94,2.77,3.93,4.56.2.36.35.43.8.42,1.63-.05,3.27,0,4.9.08.62.03,1.19.34,1.45.94.37.85.7,1.72.97,2.6.5,1.68.86,3.39,1,5.16.12,1.55.09,3.07-.22,4.59-.14.7-.35,1.39-.54,2.12.78,0,1.55-.02,2.33,0,.34.01.7.06,1.02.19.85.35,1.2,1.07,1.2,1.94,0,1.42-.02,2.85-.1,4.27-.07,1.19-.13,2.4-.41,3.56-.81,3.32-2.45,6.19-4.96,8.56-1.6,1.51-3.38,2.7-5.4,3.55-2.03.85-4.13,1.33-6.33,1.36-.77,0-1.55,0-2.33,0,0,.31,0,.56,0,.8,0,.73-.14,1.41-.77,1.87-.24.18-.53.31-.79.46ZM3.97,27.35c-.94,9.4,6.4,16.53,15.55,15.58.72-8.5-5.22-16.17-15.55-15.58Zm19.51,15.57c5.07.42,9.32-1.16,12.57-5.09,2.51-3.04,3.24-6.63,3-10.48-9.7-.69-16.37,6.42-15.57,15.57Zm-1.99-10.02c.21-.35.37-.59.51-.84,1.27-2.17,2.95-3.97,5-5.43.15-.11.3-.39.26-.55-.29-1.09-.53-2.22-.98-3.25-1.04-2.38-2.61-4.4-4.47-6.21-.28-.27-.43-.26-.7.01-1.29,1.28-2.42,2.69-3.4,4.22-1.03,1.62-1.7,3.39-2.04,5.28-.02.13.09.33.2.42,2,1.48,3.73,3.2,5,5.35.19.32.39.63.62.99Zm9.46-8.39c.77-.22,1.54-.43,2.31-.66.2-.06.47-.14.56-.29.39-.63.8-1.26,1.05-1.95.57-1.57.59-3.21.42-4.87-.16-1.55-.51-3.05-.97-4.53-.09-.3-.2-.41-.51-.4-1.13.05-2.27,0-3.39.12-1.28.14-2.56.39-3.82.69-.77.19-1.54.48-2.2,1.04,3.07,3.09,5.54,6.51,6.55,10.85ZM8.75,11.82c-.8,2.59-1.46,5.18-1.11,7.92.15,1.19.48,2.31,1.15,3.32.17.26.33.65.58.73.86.29,1.75.48,2.64.71,1.02-4.34,3.51-7.78,6.57-10.9-3.08-1.72-6.42-1.83-9.83-1.78Zm7.94-3.26c.2.12.27.17.34.19,1.55.41,2.97,1.08,4.27,2,.08.06.29,0,.4-.06.86-.45,1.7-.96,2.58-1.38.59-.28,1.22-.46,1.86-.69-.04-.1-.06-.18-.1-.24-1.17-1.57-2.65-2.8-4.25-3.91-.27-.19-.42-.19-.66,0-.81.67-1.66,1.3-2.43,2.01-.69.63-1.31,1.34-2.01,2.07Z"/>
</svg>