<?xml version="1.0" encoding="utf-8"?>
<!-- Generator: Adobe Illustrator 27.1.1, SVG Export Plug-In . SVG Version: 6.00 Build 0)  -->
<svg version="1.1" id="Layer_1" xmlns="http://www.w3.org/2000/svg" xmlns:xlink="http://www.w3.org/1999/xlink" x="0px" y="0px"
	 viewBox="0 0 500 359.2" style="enable-background:new 0 0 500 359.2;" xml:space="preserve">
<style type="text/css">
	.st0{fill:#E6E6E6;}
	.st1{fill:#FFFFFF;}
	.st2{fill:#3F3D56;}
	.st3{fill:#2F2E41;}
	.st4{fill:#FFB6B6;}
	.st5{fill:#FFB8B8;}
	.st6{fill:#CACACA;}
</style>
<g>
	<rect id="b93b1ef9-49b5-4354-905b-d9dddde45a10" x="26.2" y="18.9" class="st0" width="328.4" height="210.3"/>
	<rect id="ef7485f9-8ecd-46d9-949e-abdd8aa9e360" x="35.6" y="45.3" class="st1" width="309.6" height="171.5"/>
	<rect id="b4c2a7ec-beab-40bc-b587-23a202562f78" x="26.1" y="18.7" width="328.4" height="14"/>
	<circle id="bd6d3ebf-cb6f-4fcb-b7cd-ad5a287d3324" class="st1" cx="36.5" cy="25.9" r="2.6"/>
	<circle id="efb1158e-7a7d-4adb-9063-fc7dc50c76d5" class="st1" cx="46.3" cy="25.9" r="2.6"/>
	<circle id="b51f9e19-f36b-4f29-afd5-008bb0fc20dd" class="st1" cx="56.1" cy="25.9" r="2.6"/>
	<rect id="b636d421-4358-445b-b124-1d058e78c733" x="73.7" y="59.4" class="st0" width="60.6" height="65.7"/>
	<rect id="ab9c902d-64a9-4a2b-a9ec-6dc7022c80f6" x="160.2" y="59.4" class="st0" width="60.6" height="65.7"/>
	<rect id="f4a232af-026e-479b-8040-5c62e5965d9e" x="246.6" y="59.4" class="st0" width="60.6" height="65.7"/>
	<rect id="ada16aa4-f84d-4851-87ee-a2852d96226a" x="73.7" y="137" class="st0" width="60.6" height="65.7"/>
	<rect id="ebfcbe07-3b81-4d69-a4f5-6a8318d20e8d" x="160.2" y="137" class="st0" width="60.6" height="65.7"/>
	<rect id="ead16b6d-d132-49a9-a42f-1f570e523a46" x="246.6" y="137" class="st0" width="60.6" height="65.7"/>
	<path id="ab8ff6e3-f37e-4992-8347-ee905fdba816-219" class="st1" d="M174.8,153.9l11.1-4.4l1.3,21.9c0,0,2.3,6.7,1.5,9.3
		c0,0,0.5,4.4-0.8,4.6c-1.3,0.3-4.9,0.8-5.1,0.5s-0.3-1-0.3-1s-2.6,1.8-2.8,3.9c0,0-10.8,3.3-11.1,0.3c-0.3-3.1,5.4-5.7,5.4-5.7
		l4.4-6.7L174.8,153.9z"/>
	<path id="e647835b-1773-4993-9de9-376235a5ef39-220" class="st1" d="M198.2,153.9l11.1-4.4l1.3,21.9c0,0,2.3,6.7,1.5,9.3
		c0,0,0.5,4.4-0.8,4.6c-1.3,0.3-4.9,0.8-5.1,0.5s-0.3-1-0.3-1s-2.6,1.8-2.8,3.9c0,0-10.8,3.3-11.1,0.3c-0.3-3.1,5.4-5.7,5.4-5.7
		l4.4-6.7L198.2,153.9z"/>
	<path id="ee50e840-b8e9-4cc0-9b2e-64e12816c6e5-221" class="st2" d="M199.3,69.4c0,0-2.4,6.6,0.4,9.6l-2.3,7.8
		c0,0,8.1,24.3,5.8,27.6c0,0-8.6,4.3-25.9-1.5l7-27.2l-1-11.5l1.4-5.4l3.1-0.3c0,0-1.8,6.9,1.5,8c3.4,1.1,6.7-7.8,6.7-7.8
		L199.3,69.4z"/>
	<path id="b668efb4-5504-4326-941b-9be143c4d030-222" class="st1" d="M90.5,111.9l3,1.2l14.2-18.6l4.5,21.9l3-0.5
		c1.9-18.9,3.5-38.1,1.6-47.2l-11-0.5l-5,15.9l-2.4,10.8L90.5,111.9z"/>
	<path id="b699d661-049e-451c-8a7e-64343ac1c335-223" class="st1" d="M270.9,68.5c0,0-4.1,5.6-3.9,7.9c0.2,2.3,2.8,39.4,2.8,39.4
		l6,0.3l-1.8-26.7l1.5-7.2l3.7,33.6l7.4,0.2L280,72.3l-1.3-3.9L270.9,68.5z"/>
	<path id="a4f25674-ecb7-42aa-ae9a-d508200b11eb-224" class="st2" d="M293.9,159.3c-1.1-1.3-2.9-2-4.7-2.4c0.1-0.2-5.4-1.3-5.5-1.1
		l-2.1-1.6l-6.3,3.3l-3.6-2.4l-1.7,0.6c0.1-0.3-5.1,0.6-5.1,0.6c-1,0-2.3,0.1-3.7,0.2c-5,0.4-5.3,13.2-5.3,13.2
		c2.3-0.9,4.7-1.4,7.2-1.5l1.3,15.4c6.9-0.6,14.1,0.1,21.6,1.8l3.5-12.1l8.2-3.2C297.8,170.2,296.4,162.4,293.9,159.3z"/>
	<path id="b6d7fb25-d94e-4ba0-9382-3f72a4c565e4-225" class="st1" d="M118,152c-0.9-1.1-2.4-1.6-3.9-2c0-0.1-4.5-1.1-4.5-0.9
		l-1.7-1.4l-5.2,2.7l-2.9-2l-1.4,0.5c0.1-0.2-4.2,0.5-4.2,0.5c-0.8,0-1.9,0.1-3,0.2c-4.1,0.3-4.4,10.9-4.4,10.9
		c1.9-0.8,3.9-1.2,5.9-1.2l1.1,31c5.7-0.5,11.7,0.1,17.8,1.5l2.9-28.3l6.8-2.6C121.3,160.9,120.1,154.5,118,152z"/>
	<path id="abb48a01-b3b6-4bc9-9e6f-5cc93133d8eb-226" class="st3" d="M407.8,160.3h29v-15.5c0-8-6.5-14.5-14.5-14.5
		c-8,0-14.5,6.5-14.5,14.5V160.3z"/>
	<path id="f1b40e10-dbea-4491-93e9-bf21ee1afe95-227" class="st4" d="M394.9,333.1h-6.2l-3-24.1h9.2L394.9,333.1z"/>
	<path id="f19e2682-d3fb-40a9-8809-be7b68a78ac9-228" class="st3" d="M396.5,331.1h-12.3c-4.3,0-7.8,3.5-7.8,7.8v0.3h20.1V331.1z"/>
	<path id="b3618d44-3857-42e4-aed2-10e127155f21-229" class="st4" d="M469.5,324.8l-5.4,3.1l-14.4-19.5l8-4.5L469.5,324.8z"/>
	<path id="a172411a-a77d-4e4f-ac70-c8342021cfb1-230" class="st3" d="M469.9,322.2l-10.7,6l0,0c-3.8,2.1-5.1,6.9-3,10.7l0.1,0.2
		l17.5-9.9L469.9,322.2z"/>
	<path id="bd1532c7-07e2-44c0-82ff-fc8e0d37942d-231" class="st3" d="M429.6,224.8l0.5,2.4c0,0,1.4,1.4,0.7,2.2
		c-0.7,0.7-0.5,4.1-0.5,4.1c0.4,6.2,8.4,40.7,9.9,47.5c0,0,11.1,7.2,19.8,21.4c8.7,14.2,8.9,17.8,8.9,17.8l-9.6,4.1l-24.1-29.2
		c0,0-6.7-4.1-9.2-7.7c-2.4-3.6-17.4-41-17.4-41l-8.4,39c0,0,0.5,14.2-1.7,23.4c-1.3,5.8-2.1,11.7-2.4,17.6l-11.3-1.2
		c0,0,0.7-34.2,1.9-37.8c0,0-5.1-41.7,5.1-58.3l8.2-21.7l8-3.1L429.6,224.8z"/>
	<path id="e2a54528-859f-4f0e-9aca-6130773a8d3b-232" class="st5" d="M422.5,134c-15.2,0.3-15.2,22.9,0,23.1
		C437.7,156.9,437.7,134.3,422.5,134z"/>
	<path id="aeace49c-5333-476f-965d-52da8fac2318-233" class="st3" d="M410.8,145h2.6l0.7-1.8l-0.4,1.8h14.1l-0.5-3.7l3.4,3.7h3.4v-2
		c0-6.5-5.2-11.7-11.7-11.7c-6.5,0-11.7,5.2-11.7,11.7l0,0v0L410.8,145z"/>
	<path id="aa5a3aa9-e50b-4b43-b42d-0c1415925835-234" class="st2" d="M406.8,163.9l28.7,0.2l-6.1,61.6c0,0-33.6-1.8-33.6-12l3.1-9.1
		L406.8,163.9z"/>
	<path id="aca4d347-909c-4b66-b72e-6bb1477aee43-235" class="st4" d="M436.8,231.7c-1.7-2-1.4-5.1,0.7-6.7c0.2-0.2,0.5-0.3,0.7-0.5
		l-1.2-10.8l6.4-2.4l1.5,15.3c1.1,2.4,0.1,5.3-2.3,6.4C440.6,234,438.2,233.4,436.8,231.7z"/>
	<path id="eab38d24-ad2d-4cbe-aaaa-db975580c866-236" class="st2" d="M431.8,169.4l3.8-5.3c0,0,2.6-0.6,5.6,3s4.8,48.1,4.8,48.1
		l-11.2,2.5l-6.6-31.6L431.8,169.4z"/>
	<polygon class="st1" points="368.5,217.8 369.3,257.4 394.9,270.9 441.6,262.6 442.8,221.4 413.2,211 	"/>
	<path class="st6" d="M394.9,271.4l-26-13.7l-0.8-40.2l45.2-6.8l0.1,0l29.9,10.5l-1.2,41.8L394.9,271.4z M369.7,257.1l25.3,13.4
		l46.2-8.3l1.1-40.5l-29.2-10.3l-44.2,6.7L369.7,257.1z"/>
	<polygon class="st6" points="394.4,228.5 394.3,228.5 368.3,218.2 368.6,217.4 394.5,227.7 442.7,221 442.8,221.8 	"/>
	
		<rect x="394.3" y="228.1" transform="matrix(0.9999 -1.216377e-02 1.216377e-02 0.9999 -3.0058 4.8192)" class="st6" width="0.8" height="42.8"/>
	<polygon class="st6" points="391.1,226.5 381.7,222.7 426.8,215.5 436.1,219.3 	"/>
	
		<rect x="373.5" y="226.1" transform="matrix(0.3955 -0.9185 0.9185 0.3955 12.9657 483.6525)" class="st6" width="0.8" height="11.8"/>
	<rect x="378.4" y="239.6" transform="matrix(0.3955 -0.9185 0.9185 0.3955 3.5278 496.3309)" width="0.8" height="11.8"/>
	<polygon class="st1" points="225.8,272.8 226.7,312.4 252.3,325.9 299,317.6 300.1,276.4 270.5,266 	"/>
	<path class="st6" d="M252.2,326.4l-26-13.7l-0.8-40.2l45.2-6.8l0.1,0l29.9,10.5l-1.2,41.8L252.2,326.4z M227.1,312.1l25.3,13.4
		l46.2-8.3l1.1-40.5l-29.2-10.3l-44.2,6.7L227.1,312.1z"/>
	<polygon class="st6" points="251.7,283.5 251.6,283.5 225.7,273.2 226,272.4 251.8,282.7 300.1,276 300.2,276.8 	"/>
	
		<rect x="251.6" y="283.1" transform="matrix(0.9999 -1.216377e-02 1.216377e-02 0.9999 -3.6855 3.0884)" class="st6" width="0.8" height="42.8"/>
	<polygon class="st6" points="246.2,280.5 239.1,277.7 284.1,270.5 291.2,273.4 	"/>
	
		<rect x="230.9" y="281.1" transform="matrix(0.3955 -0.9185 0.9185 0.3955 -123.7854 385.9112)" class="st6" width="0.8" height="11.8"/>
	<rect x="235.8" y="294.6" transform="matrix(0.3955 -0.9185 0.9185 0.3955 -133.2232 398.5895)" width="0.8" height="11.8"/>
	<polygon points="270.4,278.2 271.3,324.2 301.1,339.9 355.3,330.2 356.6,282.5 322.3,270.4 	"/>
	<path class="st2" d="M301,340.4l-30.1-15.9l-1-46.7l52.4-7.9l0.1,0l34.7,12.2l-1.4,48.5L301,340.4z M271.8,323.9l29.4,15.5
		l53.7-9.6l1.3-47l-33.9-11.9l-51.4,7.8L271.8,323.9z"/>
	<polygon class="st2" points="300.4,290.7 300.3,290.6 270.2,278.7 270.6,277.8 300.6,289.7 356.6,282 356.7,282.9 	"/>
	
		<rect x="300.3" y="290.2" transform="matrix(0.9999 -1.216377e-02 1.216377e-02 0.9999 -3.81 3.6821)" class="st2" width="1" height="49.7"/>
	<polygon class="st2" points="294.5,287.2 285.8,283.9 338,275.6 346.7,278.9 	"/>
	
		<rect x="276.2" y="287.8" transform="matrix(0.3955 -0.9185 0.9185 0.3955 -103.4195 432.2787)" class="st2" width="1" height="13.7"/>
	
		<rect x="281.9" y="303.5" transform="matrix(0.3955 -0.9185 0.9185 0.3955 -114.3753 446.9962)" class="st1" width="1" height="13.7"/>
	<path id="af1e2e82-f248-43bd-a869-489ddf745161-237" class="st4" d="M383,224.3c2.4-1.1,3.4-4,2.3-6.4c-0.1-0.3-0.3-0.5-0.4-0.7
		l5.8-9.2l-4.7-4.9l-8,13.2c-2.1,1.7-2.4,4.7-0.7,6.8C378.6,224.7,381,225.3,383,224.3L383,224.3z"/>
	<path id="ed6195a6-5e50-4e12-8380-54bfefa6b2ae-238" class="st2" d="M411.3,166.3l-4.2-2.7c0,0-3.2,0.7-6.6,7.3
		c-3.4,6.6-17.2,36-17.2,36l5.7,5.8l15.1-23.1L411.3,166.3z"/>
</g>
</svg>
