<?xml version="1.0" encoding="utf-8"?>
<!-- Generator: Adobe Illustrator 27.1.1, SVG Export Plug-In . SVG Version: 6.00 Build 0)  -->
<svg version="1.1" id="Layer_2" xmlns="http://www.w3.org/2000/svg" xmlns:xlink="http://www.w3.org/1999/xlink" x="0px" y="0px"
	 viewBox="0 0 500 500" style="enable-background:new 0 0 500 500;" xml:space="preserve">
<style type="text/css">
	.st0{fill:#F2F2F2;}
	.st1{fill:#FFB6B6;}
	.st2{fill:#2F2E41;}
	.st3{fill:#A0616A;}
	.st4{fill:#E6E6E6;}
	.st5{fill:#FF6584;}
	.st6{opacity:0.3;fill:#F0F0F0;enable-background:new    ;}
	.st7{fill:#CCCCCC;}
</style>
<g>
	<path class="st0" d="M152.8,411.6c-1.2,0.1-2.2-0.8-2.2-2c0-0.6,0.2-1.2,0.7-1.6c0.1-0.2,0.1-0.4,0.1-0.6c-1.1-2.9-4.4-4.4-7.4-3.2
		c-1.4,0.6-2.6,1.7-3.2,3.1c-2.5,5.9-5.7,11.9-4.1,18.4c-10.6-22.6-7-50.6,8.7-69.9c4.4-2.4,7.9-6.7,8.8-11.6
		c-2.2,0.7-4.8-1-3.2-3.3c0.7-0.9,1.4-1.7,2.1-2.6c-8.2-8.7-17.9,5-8.9,16.7c-2.9,3.7-5.5,7.7-7.6,11.9c0.5-4.5-0.1-9-1.7-13.2
		c-1.6-3.9-4.7-7.2-7.4-10.6c-3.3-4.1-10-2.2-10.4,3c3,1,3.4,5.3,0,5.9c0.9,9.8,7.3,18.7,16.1,23c-3.2,9.1-4.5,18.8-3.7,28.4
		c-1.6-11.3-13.6-14-22.1-18.5c-1.5-1-3.6-0.5-4.5,1c-0.4,0.7-0.6,1.5-0.5,2.3c1.2,0.5,2.3,1.1,3.3,1.8c1.3,0.9,1.7,2.7,0.8,4
		c-0.5,0.7-1.3,1.2-2.1,1.3c4.3,10.5,15.3,17.6,26.6,17.6c1.1,4.7,2.7,9.3,4.7,13.7h16.8c0.1-0.2,0.1-0.4,0.2-0.6
		c-1.6,0.1-3.1,0-4.6-0.3C152,420.9,155.2,418.4,152.8,411.6L152.8,411.6z"/>
	<path class="st0" d="M302.4,411.6c1.2,0.1,2.2-0.8,2.2-2c0-0.6-0.2-1.2-0.7-1.6c-0.1-0.2-0.1-0.4-0.1-0.6c1.1-2.9,4.4-4.4,7.4-3.2
		c1.4,0.6,2.6,1.7,3.2,3.1c2.5,5.9,5.7,11.9,4.1,18.4c10.6-22.6,7-50.6-8.7-69.9c-4.4-2.4-7.9-6.7-8.8-11.6c2.2,0.7,4.8-1,3.2-3.3
		c-0.7-0.9-1.4-1.7-2.1-2.6c8.2-8.7,17.9,5,8.9,16.7c2.9,3.7,5.5,7.7,7.6,11.9c-0.5-4.5,0.1-9,1.7-13.2c1.6-3.9,4.7-7.2,7.4-10.6
		c3.3-4.1,10-2.2,10.4,3c-3,1-3.4,5.3,0,5.9c-0.9,9.8-7.3,18.7-16.1,23c3.2,9.1,4.5,18.8,3.7,28.4c1.6-11.3,13.6-14,22.1-18.5
		c1.5-1,3.6-0.5,4.5,1c0.4,0.7,0.6,1.5,0.5,2.3c-1.2,0.5-2.3,1.1-3.3,1.8c-1.3,0.9-1.7,2.7-0.8,4c0.5,0.7,1.3,1.2,2.1,1.3
		c-4.3,10.5-15.3,17.6-26.6,17.6c-1.1,4.7-2.7,9.3-4.7,13.7h-16.8c-0.1-0.2-0.1-0.4-0.2-0.6c1.6,0.1,3.1,0,4.6-0.3
		C303.2,420.9,300,418.4,302.4,411.6L302.4,411.6z"/>
	<polygon class="st1" points="308.6,414.1 301.4,415.7 291.6,388.6 302.3,386.2 	"/>
	<path class="st2" d="M310.6,421.6l-22.2,5.1l-0.1-0.3c-1.1-4.8,1.9-9.5,6.7-10.6l0,0l3.4-4l8.3,1.4l1.9-0.4L310.6,421.6z"/>
	<polygon class="st1" points="425.2,282 429.2,288.3 407,306.6 401.1,297.3 	"/>
	<path class="st2" d="M431.6,277.6l12.2,19.2l-0.2,0.2c-4.1,2.6-9.6,1.4-12.2-2.7l0,0l-4.9-1.8l-1.5-8.3l-1.1-1.7L431.6,277.6z"/>
	<path class="st3" d="M194.8,215.1l-1.8-10.3l27.1-12.3l5.9-10.4c-0.6-2.7,1.2-5.4,3.9-6c2.7-0.6,5.4,1.2,6,3.9
		c0.4,2.1-0.5,4.3-2.4,5.4l-9.6,14.9L194.8,215.1z"/>
	<polygon points="186.6,206.7 198.8,200.4 202.1,212.6 193.6,218.8 	"/>
	<polygon class="st3" points="159.2,413.1 166.6,413.1 170.1,384.6 159.2,384.6 	"/>
	<path class="st2" d="M169,413.8v-5l-1.9,0.1l-7.9,0.5l-1.8,0.1l-1.4,16.8l-0.1,0.9h5.2l0.2-0.9l0.8-4.1l2,4.1l0.4,0.9h13.9
		c1.7,0,3.1-1.4,3.1-3.1C182.1,421.3,170.5,415.4,169,413.8z"/>
	<polygon class="st3" points="71.4,300 69.7,307.2 96.6,317.3 99.2,306.7 	"/>
	<path class="st2" d="M69.1,309.4l4.9,1.2l0.3-1.9l1.4-7.8l0.3-1.8l-16-5.3l-0.9-0.3l-1.2,5.1l0.8,0.4l3.8,1.7l-4.4,1l-1,0.2
		l-3.2,13.5c-0.4,1.7,0.6,3.4,2.3,3.8C58.8,320.4,67.2,310.5,69.1,309.4z"/>
	<path class="st3" d="M170.6,228.7l-9.5-4.4l-19,23l-11.6,2.9c-2.5-1.3-5.5-0.3-6.8,2.2c-1.3,2.5-0.3,5.5,2.2,6.8
		c1.9,1,4.3,0.6,5.9-0.9l16.9-5.4L170.6,228.7z"/>
	<path class="st4" d="M305.5,143.7c-5.6,0-10.2-4.6-10.2-10.2c0-5.6,4.6-10.2,10.2-10.2s10.2,4.6,10.2,10.2
		C315.6,139.1,311.1,143.7,305.5,143.7z M305.5,124.5c-5,0-9,4-9,9s4,9,9,9s9-4,9-9v0C314.5,128.5,310.4,124.5,305.5,124.5z"/>
	<path class="st4" d="M304.7,137.3C304.7,137.3,304.7,137.3,304.7,137.3c-0.4,0-0.8-0.2-1-0.5l-1.6-2.1c-0.4-0.5-0.3-1.3,0.2-1.8
		c0,0,0,0,0,0l0.1,0c0.5-0.4,1.3-0.3,1.8,0.2c0,0,0,0,0,0c0.3,0.4,0.9,0.5,1.3,0.2c0,0,0.1-0.1,0.1-0.1l3.3-3.4
		c0.5-0.5,1.3-0.5,1.8,0l0.1,0.1c0.5,0.5,0.5,1.3,0,1.8c0,0,0,0,0,0l-5.1,5.3C305.4,137.2,305.1,137.3,304.7,137.3z"/>
	<path class="st4" d="M254.6,267.1c-5.6,0-10.2-4.6-10.2-10.2s4.6-10.2,10.2-10.2c5.6,0,10.2,4.6,10.2,10.2l0,0
		C264.8,262.5,260.2,267.1,254.6,267.1z M254.6,247.9c-5,0-9,4-9,9s4,9,9,9s9-4,9-9l0,0C263.6,251.9,259.5,247.9,254.6,247.9
		L254.6,247.9z"/>
	<path class="st4" d="M253.8,260.8C253.8,260.8,253.8,260.8,253.8,260.8c-0.4,0-0.8-0.2-1-0.5l-1.6-2.1c-0.4-0.5-0.3-1.3,0.2-1.8
		c0,0,0,0,0,0l0.1,0c0.5-0.4,1.3-0.3,1.8,0.2c0,0,0,0,0,0c0.3,0.4,0.9,0.5,1.3,0.2c0,0,0.1-0.1,0.1-0.1l3.3-3.4
		c0.5-0.5,1.3-0.5,1.8,0l0.1,0.1c0.5,0.5,0.5,1.3,0,1.8c0,0,0,0,0,0l-5.1,5.3C254.5,260.6,254.2,260.8,253.8,260.8z"/>
	<path class="st4" d="M142.8,129.6c-5.6,0-10.2-4.6-10.2-10.2c0-5.6,4.6-10.2,10.2-10.2c5.6,0,10.2,4.6,10.2,10.2
		C153,125.1,148.5,129.6,142.8,129.6z M142.8,110.4c-5,0-9,4-9,9c0,5,4,9,9,9c5,0,9-4,9-9l0,0C151.9,114.5,147.8,110.4,142.8,110.4
		L142.8,110.4z"/>
	<path class="st4" d="M142.1,123.3C142.1,123.3,142.1,123.3,142.1,123.3c-0.4,0-0.8-0.2-1-0.5l-1.6-2.1c-0.4-0.5-0.3-1.3,0.2-1.8
		c0,0,0,0,0,0l0.1,0c0.5-0.4,1.3-0.3,1.8,0.2c0,0,0,0,0,0c0.3,0.4,0.9,0.5,1.3,0.2c0,0,0.1-0.1,0.1-0.1l3.3-3.4
		c0.5-0.5,1.3-0.5,1.8,0l0.1,0.1c0.5,0.5,0.5,1.3,0,1.8c0,0,0,0,0,0l-5.1,5.3C142.8,123.2,142.5,123.3,142.1,123.3z"/>
	<path class="st0" d="M224.5,305c-23.6,0-50.8-26.2-74.8-13.8c-72.8,37.7-62.8-25.4-83.7-48.9l0.7-1.4
		c23.1,20.7,51.9,37.5,83.3,48.7c28.4,10.1,57,14.8,82.7,13.5l0,1.7C230,305,227.2,305,224.5,305z"/>
	<ellipse class="st4" cx="192" cy="121" rx="4.9" ry="6.6"/>
	<path class="st4" d="M249.1,231c-2.3,1.5-4.6-2.1-2.3-3.5C249.1,226,251.4,229.6,249.1,231z"/>
	<circle class="st5" cx="236.1" cy="104" r="6.4"/>
	<path class="st6" d="M258.6,139.2l36.6-106.9L255,138c-0.7,0.9-0.5,2.1,0.3,2.8s2.1,0.5,2.8-0.3
		C258.4,140.1,258.6,139.7,258.6,139.2L258.6,139.2z"/>
	<circle class="st0" cx="221.6" cy="263.3" r="6.3"/>
	<path class="st2" d="M161,265.6c0,0-15.6,10.2-11.5,16.9c0.1,0.2-18.6,25-18.6,25l-35.5-2.3l-1.2,11.9l31.6,9.1
		c0,0,7.7,5.7,13.7-0.6c6-6.3,25.8-25.4,25.8-25.4l1,38.7l-10,53.6l14.9-0.9l14.5-53.7l5.4-60.9L161,265.6z"/>
	<path d="M172.1,204.7l-6.6,5l-7.5,16l7.2,9.8c0,0,6.1,10.5-3.6,20.6c-9.7,10.2-17.1,21-9.4,20.6s39.1,15.6,39.4,2.5
		c0.2-13.1,0.6-23.1,0.6-23.1l8.2-20.9c0,0,4.9-12.5,1.5-16.2c-3.4-3.7-8.1-8.5-8.1-8.5l-8.4-8.4h-7.6L172.1,204.7z"/>
	<path class="st3" d="M184.4,174c14.7,8.4,2.6,30.5-12.4,22.6C157.3,188.2,169.4,166.1,184.4,174z"/>
	<path class="st2" d="M192.2,178.6c-1,1.3-3.2,0.7-7.4,1.7c0-1.4-0.2-2.9-0.5-4.2c-0.3,1.7-1,3.4-2,4.8c-3.7,0.4,0.8,11.5-1,19.7
		c-2.4-17.3-7.5-12.7-4.9-9.3c1.6,2.2,0.5,8.8-4.4,5.5c-8.1,3.9-19.7-15.4-6.9-24.4c-0.2-4.9,5.2-5.6,8.5-4.1
		C181.7,162.2,191,169.9,192.2,178.6z"/>
	<path class="st2" d="M154.5,166c-3.3,20.2-20.8-3.7-29.1,16.1c-2.6,7.2,1.9,12.3,4.7,18.3c0.6,4.9-5.7,7.4-6.4,11.9
		c-0.2,10.3,16.5,9.7,21.2,3.2c4.8-6.8-0.9-16,1.9-23.3c4-10.2,20.5-10.3,21.9-22.1C165.9,166.1,158.5,161.6,154.5,166z"/>
	<path class="st2" d="M167.8,168c-0.1,0-0.2,0.1-0.3,0.1h0c-0.1,0-0.2,0.1-0.3,0.1c0,0,0,0,0,0c-0.1-0.1-0.2-0.2-0.4-0.3
		c0,0.2,0,0.4,0,0.6l0,0.1c0.1,0.1,0.2,0.2,0.4,0.3c0.1-0.1,0.2-0.2,0.3-0.3c0.1-0.1,0.1-0.1,0.2-0.2
		C167.7,168.3,167.7,168.2,167.8,168L167.8,168z M171.1,161.7c-2.5-0.6-3.3,2.7-3.6,4.3c-0.9-5.8-4.7-3.9-3.4,0
		c0.4,1.2,1.1,2.2,1.9,3.1c0.1,0.1,0.2,0.3,0.4,0.4c-0.2,0.8,0.6,0.6,1.7-0.1c0.8-0.5,1.5-1.2,2.1-1.9
		C172.3,165.3,173.9,162.4,171.1,161.7L171.1,161.7z M171.2,165c-0.8,1-1.6,1.9-2.6,2.8c-0.3,0.3-0.6,0.5-0.9,0.8c0,0.1,0,0.1,0,0.1
		c0,0.1,0,0.1-0.1,0.2c-0.3,0.6-0.7,0.3-0.8-0.2c0,0,0,0,0-0.1c-0.5-0.5-0.8-1-1.2-1.5c-2.3-4,1.4-6.8,1.2,0.8
		c0,0.1-0.1,0.1-0.1,0.2c0,0.2,0,0.4,0,0.6l0,0.1c0.1,0.1,0.2,0.2,0.4,0.3c0.1-0.1,0.2-0.2,0.3-0.3c0.1-0.1,0.1-0.1,0.2-0.2
		c0-0.1,0-0.3,0-0.5v0c0.1-1.5,0.5-4.2,1.3-5C170.7,161.8,172.8,163.1,171.2,165L171.2,165z M167.8,168c-0.1,0-0.2,0.1-0.3,0.1h0
		c-0.1,0-0.2,0.1-0.3,0.1c0,0,0,0,0,0c-0.1-0.1-0.2-0.2-0.4-0.3c0,0.2,0,0.4,0,0.6l0,0.1c0.1,0.1,0.2,0.2,0.4,0.3
		c0.1-0.1,0.2-0.2,0.3-0.3c0.1-0.1,0.1-0.1,0.2-0.2C167.7,168.3,167.7,168.2,167.8,168L167.8,168z"/>
	<path class="st2" d="M303.8,279.1l-5.4,14.2l-25.5,50.3l22.4,58.5l11.6-3.1l-9.5-55.5l27.4-33.2l32.5,22c0,0,14.4,11.2,19.9,0.6
		c5.5-10.7,40.9-33.3,40.9-33.3l-8.8-9.4l-40.8,19.1l-28.2-39.7L303.8,279.1z"/>
	<path d="M331.3,212.2l-9-9.6l-15.4-2.1l-18.8,13.2l0.2,14.6l9.3,34.4c0,0-3.5,24.7,6.4,24.4c9.9-0.2,15.3-5.2,19.3-4.2
		c4,1,21.2,5.3,22.2,0.8s6.9-1.3,6.6-5.5s-15.6-34.8-15.6-34.8l3.8-30.5L331.3,212.2z"/>
	<path class="st1" d="M388,167.9c0.3,3-1.9,5.7-4.9,6c-0.3,0-0.6,0-1,0l-20.6,39.1l-5.5-8.5l21-36.9c0.4-3,3.2-5.1,6.2-4.7
		C385.8,163.4,387.7,165.4,388,167.9z"/>
	<path d="M323.1,219.5c0,0-0.8,7,7,8.7c7.8,1.7,29.6-10.7,33.1-12.6c1.1-0.6,2.6-3.5,4.2-7.2c0.7-1.7,1.4-3.5,2.1-5.4
		c0.4-1.1,2.3-1.4,2.7-2.4c0.4-1.1-0.8-2.9-0.4-3.9c1.6-4.7,2.7-8.5,2.7-8.5l-5.2-9.8c-7.3,3.8-11,12.3-13.7,22.1L323.1,219.5z"/>
	<path class="st1" d="M231.6,176.9c0.5,3,3.3,5,6.3,4.6c0.3,0,0.6-0.1,0.9-0.2l29.7,32.8l3.2-9.6l-29.6-30.5c-1.2-2.8-4.4-4.1-7.2-3
		C232.6,172,231.2,174.4,231.6,176.9z"/>
	<path d="M307.2,210.6c0,0,2.5,6.5-4.6,10.2c-7.2,3.6-31.3-2.9-35.2-3.9c-1.2-0.3-3.4-2.7-5.9-5.9c-1.1-1.4-2.2-3-3.4-4.7
		c-0.7-0.9-2.5-0.8-3.2-1.7c-0.6-0.9,0-3-0.5-3.9c-2.7-4.2-4.8-7.6-4.8-7.6l2.6-10.8c8,1.9,13.7,9.2,18.8,17.9L307.2,210.6z"/>
	<circle class="st1" cx="315" cy="183.4" r="14.6"/>
	<path class="st2" d="M331.6,175.1c-1.5-2.4-4.4-4-7.2-3.5c-0.8-5.4-5.8-9.1-11.2-8.3c-2,0.3-3.9,1.2-5.3,2.6c-0.9-0.6-2-0.7-3-0.3
		c-1,0.4-1.8,1.1-2.4,2c-3.3,4.1-4,9.6-2,14.4c-0.3-1.2,0.9-2.4,2.2-2.7c1.3-0.3,2.6,0,3.9-0.2c1.6-0.2,3.1-1.2,4.7-1.4
		c1.4-0.1,2.8,0.1,4.1,0.5c1.3,0.4,2.7,0.6,4.1,0.6c1.4-0.2,3.2,5.1,3.1,8.7c0,0.7,0.1,1.6,0.8,1.7c0.8,0.2,1.3-1,2.1-1.3
		c0.8-0.2,1.6,0.2,1.8,1c0.2,0.8,0,1.6-0.5,2.2c-0.5,0.6-1.1,1.1-1.7,1.5l0.3,0.3c0.6,0.7,1.7,0.8,2.5,0.3c0.8-0.5,1.4-1.2,1.8-2
		c1.5-2.4,2.6-5,3.3-7.8C333.5,180.5,333.2,177.4,331.6,175.1z"/>
	<path class="st0" d="M439.7,232.7c-18.8,14.3-56.3,9.8-68,34.2c-35.2,74-65.4,17.6-96.2,11.5l-0.3-1.5c30.9,2.6,64-1.4,95.8-11.5
		c28.7-9.1,54.4-22.7,74.1-39.2l1,1.3C444.1,229.3,441.9,231,439.7,232.7z"/>
	<path class="st7" d="M360,426.6c-0.4,1.3-256.7,1.3-257.2,0C103.3,425.2,359.6,425.2,360,426.6z"/>
</g>
</svg>
