<?xml version="1.0" encoding="utf-8"?>
<!-- Generator: Adobe Illustrator 27.3.1, SVG Export Plug-In . SVG Version: 6.00 Build 0)  -->
<svg version="1.1" id="Layer_1" xmlns="http://www.w3.org/2000/svg" xmlns:xlink="http://www.w3.org/1999/xlink" x="0px" y="0px"
	 viewBox="0 0 125.5 100" style="enable-background:new 0 0 125.5 100;" xml:space="preserve">
<path d="M26.1,0c-7.2,0-12.5,6.3-12.2,13.1c0.2,6.5-0.1,15-2.2,21.9C9.5,41.9,5.9,46.3,0,46.8v6.4c5.9,0.6,9.5,4.9,11.6,11.9
	c2.1,6.9,2.4,15.4,2.2,21.9c-0.2,6.8,5.1,13.1,12.2,13.1h73.4c7.2,0,12.5-6.3,12.2-13.1c-0.2-6.5,0.1-15,2.2-21.9
	c2.1-6.9,5.7-11.3,11.6-11.9v-6.4c-5.9-0.6-9.5-4.9-11.6-11.9c-2.1-6.9-2.4-15.4-2.2-21.9C111.9,6.3,106.6,0,99.4,0H26.1z M84,61.5
	c0,9.4-7,15-18.6,15H44.1c-0.3,0-0.5-0.2-0.5-0.5V23.9c0-0.3,0.2-0.5,0.5-0.5h21.3c9.7,0,16,5.2,16,13.3c0,5.6-4.3,10.7-9.7,11.6
	v0.3C79.1,49.3,84,54.5,84,61.5L84,61.5z M63.3,30.1H52.1V46h9.5c7.3,0,11.4-2.9,11.4-8.2C72.9,32.9,69.4,30.1,63.3,30.1L63.3,30.1z
	 M52.1,52.3v17.5h11.7c7.6,0,11.7-3.1,11.7-8.8c0-5.7-4.2-8.7-12.2-8.7L52.1,52.3L52.1,52.3z"/>
</svg>
