<?xml version="1.0" encoding="utf-8"?>
<!-- Generator: Adobe Illustrator 27.3.1, SVG Export Plug-In . SVG Version: 6.00 Build 0)  -->
<svg version="1.1"
	 id="svg3476" xmlns:rdf="http://www.w3.org/1999/02/22-rdf-syntax-ns#" xmlns:inkscape="http://www.inkscape.org/namespaces/inkscape" xmlns:svg="http://www.w3.org/2000/svg" xmlns:sodipodi="http://sodipodi.sourceforge.net/DTD/sodipodi-0.dtd" xmlns:dc="http://purl.org/dc/elements/1.1/" xmlns:cc="http://creativecommons.org/ns#"
	 xmlns="http://www.w3.org/2000/svg" xmlns:xlink="http://www.w3.org/1999/xlink" x="0px" y="0px" viewBox="0 0 70.8 100"
	 style="enable-background:new 0 0 70.8 100;" xml:space="preserve">
<style type="text/css">
	.st0{fill:#2C2C2C;}
	.st1{fill:#3C3C3C;}
	.st2{fill:#EBEBEB;}
	.st3{fill:#FFFFFF;}
</style>
<sodipodi:namedview  bordercolor="#666666" borderopacity="1.0" fit-margin-bottom="0" fit-margin-left="0" fit-margin-right="0" fit-margin-top="0" id="base" inkscape:current-layer="layer1" inkscape:cx="181.367" inkscape:cy="256" inkscape:document-units="px" inkscape:pageopacity="0.0" inkscape:pageshadow="2" inkscape:window-height="704" inkscape:window-maximized="1" inkscape:window-width="1366" inkscape:window-x="0" inkscape:window-y="27" inkscape:zoom="0.35" pagecolor="#ffffff" showgrid="false">
	</sodipodi:namedview>
<g id="g3013" transform="translate(119,276.3622)">
	<polygon id="polygon2989" class="st0" points="-48.2,-256.7 -54.6,-184.4 -83.6,-176.4 -112.6,-184.4 -119,-256.7 	"/>
	<polygon id="polygon2991" class="st1" points="-60.1,-189 -54.6,-250.8 -83.6,-250.8 -83.6,-182.5 	"/>
	<polygon id="polygon2993" class="st2" points="-104.2,-224 -103.4,-215.1 -83.6,-215.1 -83.6,-224 	"/>
	<polygon id="polygon2995" class="st2" points="-83.6,-241.9 -83.6,-241.9 -105.8,-241.9 -105,-233.1 -83.6,-233.1 	"/>
	<polygon id="polygon2997" class="st2" points="-83.6,-191.7 -83.6,-200.9 -83.6,-200.9 -93.5,-203.6 -94.1,-210.7 -98.9,-210.7 
		-103,-210.7 -101.8,-196.7 -83.6,-191.7 	"/>
	<path id="path2999" inkscape:connector-curvature="0" d="M-102.3-276.4h10.7v4.5h-6.2v4.5h6.2v4.5h-10.7V-276.4z"/>
	<path id="path3001" inkscape:connector-curvature="0" d="M-89.4-276.4h10.7v3.9h-6.2v0.8h6.2v9h-10.7v-4.1h6.2v-0.8h-6.2V-276.4z"
		/>
	<path id="path3003" inkscape:connector-curvature="0" d="M-76.5-276.4h10.7v3.9h-6.2v0.8h6.2v9h-10.7v-4.1h6.2v-0.8h-6.2V-276.4z"
		/>
	<polygon id="polygon3005" class="st3" points="-72.7,-215.1 -73.7,-203.6 -83.6,-200.9 -83.6,-191.7 -65.4,-196.7 -65.3,-198.2 
		-63.2,-221.6 -63,-224 -61.4,-241.9 -83.6,-241.9 -83.6,-233.1 -71.1,-233.1 -71.9,-224 -83.6,-224 -83.6,-215.1 	"/>
</g>
</svg>
