<?xml version="1.0" encoding="UTF-8"?>
<svg id="Layer_4" data-name="Layer 4" xmlns="http://www.w3.org/2000/svg" viewBox="0 0 48 48">
  <defs>
    <style>
      .cls-1 {
        fill: #fff;
      }
    </style>
  </defs>
  <circle class="cls-1" cx="24" cy="4" r="4"/>
  <circle class="cls-1" cx="44" cy="44" r="4"/>
  <path class="cls-1" d="m38.83,33.17l-5.17-5.17,13.17-13.17c1.56-1.56,1.56-4.09,0-5.66-1.56-1.56-4.09-1.56-5.66,0l-13.17,13.17v-6.34c0-2.21-1.79-4-4-4s-4,1.79-4,4v18c0,3.31-2.69,6-6,6s-6-2.69-6-6c0-2.21-1.79-4-4-4s-4,1.79-4,4c0,7.72,6.28,14,14,14s14-6.28,14-14v-.34l5.17,5.17c.78.78,1.8,1.17,2.83,1.17s2.05-.39,2.83-1.17c1.56-1.56,1.56-4.1,0-5.66Z"/>
</svg>